<?xml version="1.0" encoding="UTF-8"?>
<svg width="20px" height="13px" viewBox="0 0 20 13" version="1.1" xmlns="http://www.w3.org/2000/svg" xmlns:xlink="http://www.w3.org/1999/xlink">
    <!-- Generator: Sketch 50.2 (55047) - http://www.bohemiancoding.com/sketch -->
    <title>Page 1</title>
    <desc>Created with Sketch.</desc>
    <defs>
        <polygon id="path-1" points="0 0 20 0 20 13 0 13"></polygon>
    </defs>
    <g id="Page-1" stroke="none" stroke-width="1" fill="none" fill-rule="evenodd">
        <g id="Home" transform="translate(-283.000000, -1137.000000)">
            <g id="Page-1" transform="translate(283.000000, 1137.000000)">
                <mask id="mask-2" fill="white">
                    <use xlink:href="#path-1"></use>
                </mask>
                <g id="Clip-2"></g>
                <path d="M19.5953757,8.64477533 L0.404624277,8.64477533 C0.180635838,8.64477533 0,8.47194895 0,8.25764424 C0,8.04333954 0.180635838,7.87051316 0.404624277,7.87051316 L19.5953757,7.87051316 C19.8193642,7.87051316 20,8.04333954 20,8.25764424 C20,8.47194895 19.8193642,8.64477533 19.5953757,8.64477533 Z M17.9696532,4.5591598 C17.7456647,4.5591598 17.5650289,4.38633342 17.5650289,4.17202872 L17.5650289,1.18213241 C17.5650289,0.957458123 17.3735549,0.774262164 17.1387283,0.774262164 L2.86127168,0.774262164 C2.62644509,0.774262164 2.4349711,0.957458123 2.4349711,1.18213241 L2.4349711,4.17202872 C2.4349711,4.38633342 2.25433526,4.5591598 2.03034682,4.5591598 C1.80635838,4.5591598 1.62572254,4.38633342 1.62572254,4.17202872 L1.62572254,1.18213241 C1.62572254,0.530576974 2.18027457,0 2.86127168,0 L17.1387283,0 C17.8197254,0 18.3742775,0.530576974 18.3742775,1.18213241 L18.3742775,4.17202872 C18.3742775,4.38633342 18.1936416,4.5591598 17.9696532,4.5591598 Z M9.38764451,5.44403084 L3.86560694,5.44403084 L3.86560694,3.35974475 C3.86560694,2.732385 4.39848266,2.22081893 5.05599711,2.22081893 L8.19544798,2.22081893 C8.85296243,2.22081893 9.38764451,2.732385 9.38764451,3.35974475 L9.38764451,5.44403084 Z M4.67304913,4.67149694 L8.57839595,4.67149694 L8.57839595,3.35974475 C8.57839595,3.15926615 8.40679191,2.99335283 8.19544798,2.99335283 L5.05599711,2.99335283 C4.84465318,2.99335283 4.67304913,3.15926615 4.67304913,3.35974475 L4.67304913,4.67149694 Z M16.1361994,5.44403084 L10.6123555,5.44403084 L10.6123555,3.35974475 C10.6123555,2.732385 11.1470376,2.22081893 11.804552,2.22081893 L14.9440029,2.22081893 C15.6015173,2.22081893 16.1361994,2.732385 16.1361994,3.35974475 L16.1361994,5.44403084 Z M11.421604,4.67149694 L15.3269509,4.67149694 L15.3269509,3.35974475 C15.3269509,3.15926615 15.1553468,2.99335283 14.9440029,2.99335283 L11.804552,2.99335283 C11.5932081,2.99335283 11.421604,3.15926615 11.421604,3.35974475 L11.421604,4.67149694 Z M20,13 L16.6022399,13 L16.6022399,11.8247806 L3.39776012,11.8247806 L3.39776012,13 L0,13 L0,4.67149694 L20,4.67149694 L20,13 Z M17.4114884,12.2257378 L19.1907514,12.2257378 L19.1907514,5.44575911 L0.809248555,5.44575911 L0.809248555,12.2257378 L2.58851156,12.2257378 L2.58851156,11.0505185 L17.4114884,11.0505185 L17.4114884,12.2257378 Z" id="Fill-1" fill="#585858" mask="url(#mask-2)"></path>
            </g>
        </g>
    </g>
</svg>