<?xml version="1.0" encoding="UTF-8"?>
<svg width="419px" height="341px" viewBox="0 0 419 341" version="1.1" xmlns="http://www.w3.org/2000/svg" xmlns:xlink="http://www.w3.org/1999/xlink">
    <!-- Generator: Sketch 50.2 (55047) - http://www.bohemiancoding.com/sketch -->
    <title>Group 27</title>
    <desc>Created with Sketch.</desc>
    <defs>
        <polygon id="path-1" points="0 0 557 0 557 622 0 622"></polygon>
    </defs>
    <g id="Page-1" stroke="none" stroke-width="1" fill="none" fill-rule="evenodd">
        <g id="Home" transform="translate(-1261.000000, -2929.000000)">
            <g id="Group-27-+-Fill-28-+-Fill-30-+-Fill-32-+-Fill-34-+-Fill-36-+-Fill-38-+-Fill-40-+-Fill-42-+-Fill-44-+-Fill-46-+-Fill-48-+-Fill-50-+-Fill-52-Mask" transform="translate(-7.000000, 2854.000000)">
                <g id="Group-27" transform="translate(1268.000000, 75.000000)">
                    <g id="Group-13">
                        <mask id="mask-2" fill="white">
                            <use xlink:href="#path-1"></use>
                        </mask>
                        <g id="Clip-26"></g>
                        <path d="M281.325062,7.54195091 C221.064542,7.54195091 163.33213,32.8271823 118.741525,78.7224475 C114.971156,82.5898886 111.004641,86.995834 106.624039,92.1850587 C98.7345964,98.7939768 91.8476798,105.133643 85.6581725,111.497786 C40.3483638,158.127376 12.6045512,221.695378 7.52653996,290.501559 C-1.06031171,407.332546 57.6310374,517.211931 153.5684,563.890475 C190.247769,592.357778 232.702559,609.369623 276.857283,613.457361 C283.831376,614.118253 290.914439,614.460938 297.93212,614.460938 C361.091247,614.460938 421.63509,587.951833 468.383305,539.829117 C515.414843,491.43715 544.182975,425.470355 549.435339,354.045084 C554.687702,282.7422 535.966622,212.46737 496.759145,156.169178 C487.910765,136.831973 477.493214,119.208191 465.419315,103.248877 C423.814494,48.0766491 365.559025,14.4201213 301.44096,8.47209495 C294.75019,7.86015809 287.994038,7.54195091 281.325062,7.54195091 M297.93212,622 C290.718293,622 283.460877,621.657315 276.290638,620.996424 C230.98083,616.786298 187.39275,599.309381 150.321089,570.450438 C52.3132917,522.84175 -7.99081636,409.951636 0.857563788,289.889622 C6.06633929,219.174198 34.5511493,153.843818 81.1032182,105.941399 C87.4670778,99.3814362 94.5719348,92.870428 102.199849,86.5552395 C106.231746,81.684222 110.307232,77.1558892 114.208365,73.1415833 C165.097447,20.7597873 233.182028,-5.48006566 301.964017,0.957510201 C367.912782,7.07687889 427.781009,41.6635507 470.562709,98.3533823 C482.963518,114.777768 493.664391,132.866622 502.403801,152.154872 C542.308688,209.309775 561.509237,281.469371 556.104315,354.681498 C550.742981,427.991535 521.190263,495.720708 472.938259,545.409981 C424.92599,594.805526 362.791182,622 297.93212,622" id="Fill-25" fill="#FCFCFC" mask="url(#mask-2)"></path>
                        <path d="M49.1697117,275.201439 C58.2579317,211.174014 87.6744624,152.550561 133.252916,108.546785 C169.03349,73.9758352 212.43718,50.6712035 259,40.2733813 C197.946391,41.7691237 141.654369,67.3414939 98.9145531,108.595035 C71.5354319,146.929465 53.7710523,193.393979 49.8106944,243.959722 C48.9865737,254.429919 48.826328,264.851866 49.1697117,275.201439" id="Fill-28" fill="#FCFCFC" mask="url(#mask-2)"></path>
                        <path d="M41.1746078,331.797081 C36.5188515,307.169797 35.0714661,281.752068 37.1460518,256.062625 C40.1131919,219.356362 50.1001511,184.156884 66.2143752,152.143885 C36.4706053,191.517898 17.1238871,239.6115 12.9023464,292.052547 C7.18517407,362.74792 28.7753396,431.541286 73.6925331,485.810236 C85.3198625,499.865326 98.1533464,512.463034 112,523.553957 C110.745599,522.121276 109.467076,520.737999 108.260921,519.255915 C64.4292666,466.296139 41.0781155,400.46694 41.1746078,331.797081" id="Fill-30" fill="#FCFCFC" mask="url(#mask-2)"></path>
                        <path d="M278.518036,24.3052787 C291.472013,25.5242368 304.121702,27.9123996 316.380164,31.320507 C319.814272,31.4946439 323.24838,31.4697672 326.639018,31.7931643 C385.170998,37.3406676 439.029984,65.1030607 481,110.751799 C477.500687,105.229172 473.870966,99.8060522 469.980426,94.5819459 C429.162357,39.4303101 372.021408,5.77213986 309.07725,-0.173390574 C302.469853,-0.795307983 295.84072,-1.11870504 289.341997,-1.11870504 C237.2218,-1.11870504 188.513977,18.8821588 149,52.5900824 C182.602095,33.4847796 219.812177,23.3350875 258.000327,23.3350875 C264.825074,23.3350875 271.736759,23.6584846 278.518036,24.3052787" id="Fill-32" fill="#FCFCFC" mask="url(#mask-2)"></path>
                        <path d="M518.621006,294.768514 C513.559435,360.329603 485.927172,420.906651 440.785785,465.390374 C431.879159,477.990214 421.886359,489.821487 410.850833,500.674584 C365.340147,545.367916 306.447798,569.985348 244.970356,569.985348 C241.342535,569.985348 237.671268,569.659289 234,569.496259 C246.534447,572.850006 259.416469,575.225577 272.53745,576.366782 C279.054493,576.94903 285.723601,577.251799 292.327538,577.251799 C414.500377,577.251799 518.099642,474.846076 528.179336,344.119827 C530.742706,310.885129 527.26695,278.11623 518.229983,247.233813 C519.663733,262.884631 519.859244,278.768347 518.621006,294.768514" id="Fill-34" fill="#FCFCFC" mask="url(#mask-2)"></path>
                        <path d="M393,68.2410072 C459.656387,122.933253 500.771734,217.992414 493.670178,321.420325 C491.132446,358.439739 482.516438,393.957701 468.661242,426.226619 C494.07949,386.622737 510.615677,338.280896 514.238084,285.557768 C516.243711,256.365597 514.25855,227.518021 508.650981,199.851916 C500.505681,179.570003 490.19103,160.371105 477.747958,142.722887 C454.4172,109.59248 425.417476,84.363159 393,68.2410072" id="Fill-38" fill="#FCFCFC" mask="url(#mask-2)"></path>
                        <path d="M49.1697117,275.201439 C58.2579317,211.174014 87.6744624,152.550561 133.252916,108.546785 C169.03349,73.9758352 212.43718,50.6712035 259,40.2733813 C197.946391,41.7691237 141.654369,67.3414939 98.9145531,108.595035 C71.5354319,146.929465 53.7710523,193.393979 49.8106944,243.959722 C48.9865737,254.429919 48.826328,264.851866 49.1697117,275.201439" id="Fill-40" fill="#FCFCFC" mask="url(#mask-2)"></path>
                        <path d="M41.1746078,331.797081 C36.5188515,307.169797 35.0714661,281.752068 37.1460518,256.062625 C40.1131919,219.356362 50.1001511,184.156884 66.2143752,152.143885 C36.4706053,191.517898 17.1238871,239.6115 12.9023464,292.052547 C7.18517407,362.74792 28.7753396,431.541286 73.6925331,485.810236 C85.3198625,499.865326 98.1533464,512.463034 112,523.553957 C110.745599,522.121276 109.467076,520.737999 108.260921,519.255915 C64.4292666,466.296139 41.0781155,400.46694 41.1746078,331.797081" id="Fill-42" fill="#FCFCFC" mask="url(#mask-2)"></path>
                        <path d="M278.518036,24.3052787 C291.472013,25.5242368 304.121702,27.9123996 316.380164,31.320507 C319.814272,31.4946439 323.24838,31.4697672 326.639018,31.7931643 C385.170998,37.3406676 439.029984,65.1030607 481,110.751799 C477.500687,105.229172 473.870966,99.8060522 469.980426,94.5819459 C429.162357,39.4303101 372.021408,5.77213986 309.07725,-0.173390574 C302.469853,-0.795307983 295.84072,-1.11870504 289.341997,-1.11870504 C237.2218,-1.11870504 188.513977,18.8821588 149,52.5900824 C182.602095,33.4847796 219.812177,23.3350875 258.000327,23.3350875 C264.825074,23.3350875 271.736759,23.6584846 278.518036,24.3052787" id="Fill-44" fill="#FCFCFC" mask="url(#mask-2)"></path>
                        <path d="M301.251873,63.327808 C182.324245,63.327808 81.4660355,164.394543 71.6600702,293.440882 C69.7649848,318.258407 71.2193527,343.051977 75.9791021,367.126893 C84.5730942,387.608538 96.1639655,407.563169 110.134711,425.505569 C149.865398,476.458152 205.461915,507.551923 266.699618,513.061606 C322.494458,517.972409 375.777209,501.371497 420.642254,465.726249 C455.392832,425.481614 477.20835,372.66053 481.373131,317.515798 C489.658621,208.591777 429.809179,105.201393 335.804128,66.0826491 C331.374916,65.4358603 325.976127,64.6692958 320.533265,64.190193 C314.120825,63.6152697 307.620241,63.327808 301.251873,63.327808 M285.892866,523.553957 C279.348211,523.553957 272.649304,523.24254 265.972434,522.643662 C202.376893,516.942338 144.642895,484.65081 103.391733,431.733905 C88.8700902,413.096806 76.8385013,392.37561 67.6054689,370.09733 C62.382966,344.153914 60.8624905,318.402138 62.8236836,292.626408 C73.0042587,158.64531 177.740782,53.6978417 301.251873,53.6978417 C307.862636,53.6978417 314.583578,54.0092585 321.238413,54.608137 C326.901633,55.111195 332.498746,55.9017146 338.051787,56.8120099 C436.618265,97.727389 498.80351,205.142237 490.209518,318.306318 C485.846414,375.607012 463.215569,430.512193 426.481762,472.912791 C384.657667,506.234391 336.244845,523.553957 285.892866,523.553957" id="Fill-46" fill="#FCFCFC" mask="url(#mask-2)"></path>
                        <path d="M518.621006,294.768514 C513.559435,360.329603 485.927172,420.906651 440.785785,465.390374 C431.879159,477.990214 421.886359,489.821487 410.850833,500.674584 C365.340147,545.367916 306.447798,569.985348 244.970356,569.985348 C241.342535,569.985348 237.671268,569.659289 234,569.496259 C246.534447,572.850006 259.416469,575.225577 272.53745,576.366782 C279.054493,576.94903 285.723601,577.251799 292.327538,577.251799 C414.500377,577.251799 518.099642,474.846076 528.179336,344.119827 C530.742706,310.885129 527.26695,278.11623 518.229983,247.233813 C519.663733,262.884631 519.859244,278.768347 518.621006,294.768514" id="Fill-48" fill="#FCFCFC" mask="url(#mask-2)"></path>
                        <path d="M393,68.2410072 C459.656387,122.933253 500.771734,217.992414 493.670178,321.420325 C491.132446,358.439739 482.516438,393.957701 468.661242,426.226619 C494.07949,386.622737 510.615677,338.280896 514.238084,285.557768 C516.243711,256.365597 514.25855,227.518021 508.650981,199.851916 C500.505681,179.570003 490.19103,160.371105 477.747958,142.722887 C454.4172,109.59248 425.417476,84.363159 393,68.2410072" id="Fill-52" fill="#FCFCFC" mask="url(#mask-2)"></path>
                    </g>
                </g>
            </g>
        </g>
    </g>
</svg>