<?xml version="1.0" encoding="UTF-8"?>
<svg width="43px" height="31px" viewBox="0 0 43 31" version="1.1" xmlns="http://www.w3.org/2000/svg" xmlns:xlink="http://www.w3.org/1999/xlink">
    <!-- Generator: Sketch 50.2 (55047) - http://www.bohemiancoding.com/sketch -->
    <title>Group</title>
    <desc>Created with Sketch.</desc>
    <defs></defs>
    <g id="Page-1" stroke="none" stroke-width="1" fill="none" fill-rule="evenodd">
        <g id="Home" transform="translate(-584.000000, -1283.000000)" fill="#00AE9E" fill-rule="nonzero">
            <g id="Group" transform="translate(584.000000, 1283.000000)">
                <g id="Shape">
                    <path d="M42.0487561,21.478303 L35.3952927,16.9851818 L35.3952927,15.1815455 C35.3952927,14.9335455 35.2652439,14.7015152 35.0460488,14.5521515 L21.9530732,5.70869697 C21.638439,5.49639394 21.2063415,5.49639394 20.8927561,5.70869697 L7.79978049,14.5521515 C7.57953659,14.7015152 7.4494878,14.9335455 7.4494878,15.1815455 L7.4494878,16.9851818 L0.797073171,21.478303 C0.576829268,21.6276667 0.446780488,21.8606364 0.446780488,22.107697 L0.446780488,30.07 C0.446780488,30.5049394 0.841121951,30.8581515 1.3277561,30.8581515 L41.5180732,30.8581515 C42.0036585,30.8581515 42.398,30.5049394 42.398,30.07 L42.398,22.107697 C42.398,21.8606364 42.2679512,21.6276667 42.0487561,21.478303 Z M24.1334878,29.2827879 L18.7112927,29.2827879 L9.20829268,29.2827879 L9.20829268,15.5742121 L21.4223902,7.32539394 L33.6364878,15.5742121 L33.6364878,29.2827879 L24.1334878,29.2827879 Z M2.20663415,22.501303 L7.44843902,18.9597879 L7.44843902,29.2827879 L2.20663415,29.2827879 L2.20663415,22.501303 Z M40.6370976,29.2827879 L35.3952927,29.2827879 L35.3952927,18.9597879 L40.6370976,22.501303 L40.6370976,29.2827879 Z"></path>
                    <path d="M1.85739024,15.5281818 L21.4223902,2.31278788 L40.988439,15.5281818 C41.1468049,15.6352727 41.332439,15.6869394 41.5170244,15.6869394 C41.7844634,15.6869394 42.0487561,15.5789091 42.2207561,15.3741212 C42.5133659,15.0265455 42.4357561,14.5314848 42.0487561,14.2703333 L21.9530732,0.696090909 C21.638439,0.483787879 21.2063415,0.483787879 20.8927561,0.696090909 L0.797073171,14.2693939 C0.410073171,14.5305455 0.331414634,15.0256061 0.62402439,15.3731818 C0.916634146,15.7207576 1.46934146,15.7902727 1.85739024,15.5281818 Z"></path>
                </g>
                <path d="M24.3949925,30.0606061 L18.6050075,30.0606061 C18.1758752,30.0606061 17.8292683,29.7739498 17.8292683,29.4210723 L17.8292683,22.2455944 C17.8292683,21.8927169 18.1758752,21.6060606 18.6050075,21.6060606 L24.3949925,21.6060606 C24.8241248,21.6060606 25.1707317,21.8927169 25.1707317,22.2455944 L25.1707317,29.4210723 C25.1707317,29.7739498 24.8230245,30.0606061 24.3949925,30.0606061 Z M19.3807466,28.7815386 L23.6192534,28.7815386 L23.6192534,22.8851281 L19.3807466,22.8851281 L19.3807466,28.7815386 Z" id="Shape"></path>
            </g>
        </g>
    </g>
</svg>