<?xml version="1.0" encoding="UTF-8"?>
<svg width="23px" height="23px" viewBox="0 0 23 23" version="1.1" xmlns="http://www.w3.org/2000/svg" xmlns:xlink="http://www.w3.org/1999/xlink">
    <!-- Generator: Sketch 50.2 (55047) - http://www.bohemiancoding.com/sketch -->
    <title>phone</title>
    <desc>Created with Sketch.</desc>
    <defs>
        <polygon id="path-1" points="0 0 23 0 23 23 0 23"></polygon>
    </defs>
    <g id="Page-1" stroke="none" stroke-width="1" fill="none" fill-rule="evenodd">
        <g id="Home" transform="translate(-1642.000000, -1041.000000)">
            <g id="phone" transform="translate(1642.000000, 1041.000000)">
                <mask id="mask-2" fill="white">
                    <use xlink:href="#path-1"></use>
                </mask>
                <g id="Clip-2"></g>
                <path d="M23,18.1648458 C23,18.4587885 22.9455781,18.8426364 22.8366985,19.3163895 C22.7278189,19.7901426 22.6135078,20.1630918 22.4935866,20.4354515 C22.2649645,20.9799567 21.6006811,21.5571221 20.5007722,22.1669836 C19.4770467,22.7223874 18.4642558,23 17.4624706,23 C17.1683492,23 16.879838,22.9810256 16.5966153,22.9428981 C16.3135355,22.9048063 16.0003325,22.8366985 15.6573636,22.7387176 C15.3142517,22.6407009 15.0584008,22.5616944 14.8896678,22.501841 C14.7207561,22.4419519 14.418559,22.3302851 13.9828977,22.1669836 C13.5474151,22.0035034 13.2805225,21.9055225 13.1825416,21.8728622 C12.115293,21.4918015 11.1624983,21.0398458 10.3238718,20.5171023 C8.94088302,19.6567141 7.50329368,18.4805859 6.01142536,16.9887176 C4.51944983,15.4967063 3.34328585,14.0592599 2.4828977,12.6761282 C1.96015418,11.8376446 1.50834141,10.884707 1.12713779,9.81745839 C1.09447748,9.71947748 0.996496576,9.45272785 0.833016394,9.0171023 C0.669714879,8.58144102 0.558048088,8.27924388 0.498158954,8.11047516 C0.438305555,7.94159924 0.359442,7.68574829 0.261282424,7.34263644 C0.163301515,6.99970326 0.0953366394,6.68660744 0.0572448637,6.40338473 C0.0191173546,6.12030495 0,5.83165076 0,5.5376723 C0,4.53574425 0.277648309,3.52295325 0.833016394,2.49922785 C1.44302081,1.39931889 2.02018625,0.735035485 2.56458419,0.506413364 C2.83690822,0.386635097 3.20985744,0.272181103 3.6836105,0.163301515 C4.15736356,0.0544219272 4.54121145,0 4.83515418,0 C4.98773568,0 5.10204675,0.0163301515 5.17826603,0.0489904545 C5.37422785,0.114311061 5.66291777,0.528174988 6.04412139,1.2904393 C6.16386393,1.49744273 6.32716544,1.79142119 6.53402594,2.17262482 C6.74102937,2.55368551 6.93155972,2.89954883 7.10575991,3.20985744 C7.28010304,3.52027325 7.44887176,3.81160744 7.61217327,4.08378855 C7.64483358,4.12734753 7.74017022,4.26342021 7.89804026,4.492221 C8.05605323,4.72084312 8.1730443,4.91416067 8.24922785,5.07203071 C8.32559007,5.23004369 8.36371758,5.38512653 8.36371758,5.5376723 C8.36371758,5.75543147 8.2084918,6.02775551 7.89804026,6.35439427 C7.58776738,6.68114024 7.25012274,6.98055017 6.8853922,7.25287421 C6.52051872,7.52509104 6.18283835,7.81374523 5.87256547,8.11858664 C5.56211392,8.42357098 5.40688815,8.67399045 5.40688815,8.87009521 C5.40688815,8.96807612 5.43425992,9.09049865 5.48871758,9.23761295 C5.5431395,9.38462005 5.58934275,9.49628684 5.62743453,9.57250612 C5.66556204,9.64868967 5.74192426,9.77936662 5.85623532,9.96442976 C5.97054638,10.1496716 6.03322272,10.2530839 6.04412139,10.2748813 C6.87170632,11.7668926 7.8191767,13.0464332 8.88646109,14.1136818 C9.95356681,15.1809662 11.2332504,16.1282937 12.7251187,16.9560215 C12.7469161,16.9669202 12.8503284,17.0294536 13.0355702,17.1437647 C13.2206334,17.2582187 13.3513103,17.334438 13.4275296,17.3725655 C13.5038561,17.4106572 13.61538,17.4570034 13.76253,17.5114254 C13.9095013,17.565883 14.0320668,17.5931118 14.1300477,17.5931118 C14.3260095,17.5931118 14.576429,17.4378861 14.8814134,17.1274345 C15.1863977,16.8171617 15.474909,16.479517 15.7472687,16.1147507 C16.0194498,15.749913 16.3190027,15.4122326 16.6456057,15.1019597 C16.9723874,14.7915082 17.2445685,14.6364254 17.4624706,14.6364254 C17.6148735,14.6364254 17.7700992,14.6745529 17.9279693,14.7507722 C18.0858393,14.8269557 18.2791569,14.9440897 18.507779,15.1019597 C18.7365798,15.2598298 18.8726525,15.3551664 18.9162115,15.3878267 C19.1885355,15.5511282 19.4798697,15.719897 19.7901426,15.8942401 C20.1005941,16.0684403 20.4463145,16.2589706 20.8273752,16.4659741 C21.2085788,16.6728346 21.5027002,16.8361361 21.7095607,16.9560215 C22.471825,17.337118 22.8856889,17.6257722 22.9510095,17.821734 C22.9836698,17.8979533 23,18.0124072 23,18.1648458 Z" id="Fill-1" fill="#FFFFFF" mask="url(#mask-2)"></path>
            </g>
        </g>
    </g>
</svg>