<?xml version="1.0" encoding="UTF-8"?>
<svg width="22px" height="22px" viewBox="0 0 22 22" version="1.1" xmlns="http://www.w3.org/2000/svg" xmlns:xlink="http://www.w3.org/1999/xlink">
    <!-- Generator: Sketch 50.2 (55047) - http://www.bohemiancoding.com/sketch -->
    <title>人才</title>
    <desc>Created with Sketch.</desc>
    <defs>
        <polygon id="path-1" points="0 0 22 0 22 22 0 22"></polygon>
    </defs>
    <g id="Page-1" stroke="none" stroke-width="1" fill="none" fill-rule="evenodd">
        <g id="Home" transform="translate(-1643.000000, -888.000000)">
            <g id="人才" transform="translate(1643.000000, 888.000000)">
                <mask id="mask-2" fill="white">
                    <use xlink:href="#path-1"></use>
                </mask>
                <g id="Clip-2"></g>
                <path d="M9.31093292,21.8980277 C9.34665964,21.5601889 9.37009184,21.2638021 9.41001538,20.9729908 C9.47885926,20.4656534 9.56145039,19.9625178 9.63586312,19.4565541 C9.67158984,19.2029931 9.69502205,18.9479508 9.72528753,18.6942821 L9.88091936,17.5225256 C9.91118484,17.2964378 9.94145033,17.0676027 9.96625457,16.8401143 C10.0007169,16.4996628 10.0255211,16.1578107 10.0626199,15.8172514 C10.0819629,15.6353361 10.1205144,15.4547945 10.1383777,15.2727714 C10.1769561,14.89779 10.0226963,14.5600588 9.92221493,14.2112846 C9.88923228,14.0872245 9.84099583,13.9631913 9.82450451,13.8377845 C9.82028079,13.7977868 9.89878272,13.708149 9.93873316,13.708149 C10.6684675,13.6998532 11.3969375,13.7026813 12.1252998,13.7026813 C12.2298704,13.7026813 12.2684219,13.7274071 12.2298704,13.8446259 C12.1472524,14.0913455 12.0840043,14.3408932 12.0150528,14.5889864 C11.9875314,14.6883207 11.9531498,14.7875203 11.9366585,14.889575 C11.878764,15.2368947 11.9283724,15.5788276 11.9999335,15.9234001 C12.0522591,16.1673993 12.0687505,16.4169471 12.0921827,16.6650403 C12.1252998,17.0262583 12.1445352,17.388796 12.188548,17.7486404 C12.2560198,18.2752359 12.3400906,18.7990841 12.4130237,19.3243059 C12.4475129,19.5586088 12.4764063,19.7929116 12.4983589,20.0273221 C12.5341932,20.381591 12.5603695,20.7372066 12.5948318,21.0901826 C12.6154392,21.306601 12.6443327,21.5216726 12.678795,21.7352628 C12.6842562,21.7767149 12.7393259,21.8097366 12.8067978,21.8856109 C12.9087319,21.4954654 12.9899779,21.1591079 13.0835991,20.8254708 C13.1772204,20.4836457 13.2846426,20.1459145 13.38238,19.8053284 C13.4498249,19.5682782 13.5062667,19.3270263 13.5696224,19.0885217 C13.6425555,18.8293853 13.7197123,18.5716226 13.7899013,18.3110048 C13.8560011,18.0739547 13.9110708,17.8340764 13.9785427,17.5969186 C14.0473597,17.341984 14.1231444,17.0883153 14.1947055,16.8332729 C14.2580612,16.5988624 14.3200718,16.3590918 14.3861716,16.1233076 C14.4591047,15.8558485 14.5376067,15.5912444 14.6105397,15.3224386 C14.6752675,15.0784393 14.7303372,14.831612 14.7964371,14.5889864 C14.8652809,14.3339441 14.945128,14.0817568 15.016716,13.8294618 C15.0814437,13.5978793 15.1378586,13.3648424 15.2012412,13.13326 C15.2287626,13.0271113 15.2315067,12.8851667 15.3004313,12.8273115 C15.3830493,12.7582785 15.5468865,12.7142137 15.6418797,12.7473431 C16.0825182,12.9044249 16.509275,13.0961174 16.9444522,13.2656159 C17.3932692,13.4406898 17.8476818,13.603347 18.2978708,13.7743269 C18.6559181,13.9108038 19.0138579,14.0486274 19.3691612,14.1906528 C19.8276631,14.3739418 20.2654499,14.5903601 20.6661649,14.8812791 C21.0269294,15.1446173 21.310564,15.468558 21.4716571,15.8738407 C21.5445902,16.0530356 21.5418461,16.2597576 21.5625611,16.4569447 C21.5982879,16.8167621 21.6176309,17.1792191 21.6547296,17.5404101 C21.700222,17.9650587 21.7566638,18.3882259 21.8062454,18.8128745 L21.8117335,18.8707297 C21.8433441,19.300846 21.8737172,19.7267336 21.9080988,20.1541026 C21.931531,20.4504893 21.9549632,20.7468761 21.9948867,21.0391688 C22.0567897,21.5119762 21.5459622,22.0040687 21.0406766,21.9999746 C18.2703494,21.9751411 15.5013672,21.9820902 12.7282958,21.9820902 C8.8386569,21.9820902 4.94753831,21.9848105 1.05496697,21.9945069 C0.709429336,21.9945069 0.410675408,21.9200062 0.217837212,21.644359 C-0.0134717726,21.3107219 -0.0437372539,20.9275255 0.0485388357,20.5387805 C0.0580892764,20.5001565 0.078804317,20.4629061 0.078804317,20.4256558 C0.113159001,20.0038622 0.136591209,19.5820687 0.177886777,19.1616488 C0.215093142,18.8031781 0.274252069,18.4460811 0.321143388,18.0890919 L0.327949759,18.029863 C0.359694886,17.6093354 0.354126037,17.1807004 0.43262797,16.7684686 C0.508385832,16.3673069 0.443658056,15.9413923 0.717634644,15.5677845 C0.993063975,15.1997521 1.31799418,14.89779 1.69936615,14.6565381 C2.28040958,14.287132 2.94140769,14.0858778 3.58298209,13.8418785 C4.08834837,13.6489201 4.58540173,13.4365958 5.08931527,13.2353146 C5.51198281,13.067082 5.93884715,12.9003308 6.36708354,12.744515 C6.56538297,12.670122 6.74571143,12.806572 6.79112311,13.0092268 C6.85176168,13.2711913 6.9412937,13.528981 7.01148271,13.7908378 C7.07621049,14.0279956 7.13128021,14.2677661 7.19600799,14.5062977 C7.26622391,14.7668077 7.34744301,15.0246782 7.41900405,15.2865619 C7.48101466,15.5167707 7.53882846,15.7496998 7.60355623,15.98139 C7.70401073,16.3480487 7.81006098,16.7119871 7.91062308,17.0800195 C7.97524325,17.3102013 8.03179262,17.5417837 8.09232358,17.7719925 C8.16670941,18.0407984 8.24658337,18.3055371 8.31951646,18.5729693 C8.38424423,18.8115009 8.43794192,19.0512714 8.50404174,19.2898029 C8.57562969,19.550286 8.65413162,19.8080757 8.72432063,20.0686934 C8.79042044,20.307198 8.84957937,20.5456218 8.91158998,20.7855001 C8.99692519,21.1163899 9.07951632,21.4485455 9.17179241,21.7780617 C9.18145046,21.819433 9.24483311,21.8427852 9.31093292,21.8980277 Z M5.85897319,5.51282948 C5.93610308,5.09238265 6.0256351,4.57128176 6.1302057,4.05163533 C6.25137524,3.43540195 6.52954864,2.87987883 6.86962504,2.35328331 C7.3595223,1.58500494 8.04354907,0.960044793 8.85243105,0.54183352 C9.22411807,0.348875089 9.61514808,0.191685613 10.0365512,0.128254973 C10.3491062,0.0827896139 10.6602622,0.0028212189 10.9727903,0.000100839007 C11.2977205,-0.00264647534 11.6268744,0.0511146956 11.9475809,0.115918993 C12.2478414,0.176521515 12.5493394,0.260610882 12.831602,0.376429035 C13.6096805,0.693232088 14.2944336,1.20331678 14.8212413,1.85836272 C15.2163605,2.34361384 15.5275435,2.86883571 15.7533643,3.43812233 C15.8842188,3.76481033 15.9489466,4.11916001 16.0218797,4.46510614 C16.0852354,4.7780037 16.1595405,5.099224 16.1567965,5.41635027 C16.1429416,5.85559735 16.1006775,6.29349771 16.0301657,6.7272771 C15.9957034,6.9836931 15.9213983,7.23326776 15.8621317,7.48545505 C15.7506472,7.96795887 15.5372015,8.4091183 15.3086366,8.84604902 C14.9189786,9.59043653 14.3916329,10.221834 13.7348316,10.7553517 C13.3098504,11.1053919 12.8232891,11.372851 12.3001671,11.5438309 C11.8306351,11.6955257 11.3541623,11.80022 10.8626509,11.7685451 C10.0779544,11.7203593 9.32069858,11.4613307 8.67062294,11.018609 C8.08686234,10.6229958 7.57600792,10.1488147 7.19738002,9.55876161 C6.92889158,9.15137799 6.6874941,8.72675632 6.47447892,8.28780551 C6.29961169,7.91282404 6.18390339,7.50754131 6.06830271,7.10909992 C6.00766413,6.90930014 5.99811369,6.69562911 5.97193741,6.4887725 C5.93610308,6.19933486 5.90449247,5.91261759 5.85897319,5.51282948 Z" id="Fill-1" fill="#FFFFFF" mask="url(#mask-2)"></path>
            </g>
        </g>
    </g>
</svg>