<?xml version="1.0" encoding="UTF-8"?>
<svg width="25px" height="24px" viewBox="0 0 25 24" version="1.1" xmlns="http://www.w3.org/2000/svg" xmlns:xlink="http://www.w3.org/1999/xlink">
    <!-- Generator: Sketch 50.2 (55047) - http://www.bohemiancoding.com/sketch -->
    <title>wechat (1)</title>
    <desc>Created with Sketch.</desc>
    <defs></defs>
    <g id="Page-1" stroke="none" stroke-width="1" fill="none" fill-rule="evenodd">
        <g id="Home" transform="translate(-1641.000000, -990.000000)" fill="#FFFFFF">
            <path d="M1653.49993,1012.80087 C1651.61776,1012.80087 1649.84124,1012.40966 1648.24292,1011.72694 L1644.04901,1013.84834 C1643.75858,1014.01122 1643.4244,1014.03856 1643.11879,1013.95117 C1643.11767,1013.95074 1643.11642,1013.95088 1643.11501,1013.95059 C1642.5254,1013.79648 1642.14688,1013.25852 1642.18522,1012.68614 C1642.18958,1012.55329 1642.21882,1012.42467 1642.26533,1012.30229 L1643.42343,1008.12368 C1641.90421,1006.23954 1641,1003.91929 1641,1001.40044 C1641,995.104092 1646.59651,990 1653.50007,990 C1660.40364,990 1666,995.104092 1666,1001.40044 C1666,1007.69678 1660.40349,1012.80087 1653.49993,1012.80087 Z M1653.49993,992.23064 C1647.8062,992.23064 1643.19032,996.33614 1643.19032,1001.40044 C1643.19032,1003.6237 1644.08074,1005.6615 1645.56058,1007.24889 L1645.56018,1007.25063 C1645.83974,1007.55471 1645.96273,1007.98503 1645.84619,1008.40903 L1645.25566,1010.53994 L1647.38001,1009.4654 C1647.76955,1009.24691 1648.23466,1009.27185 1648.61046,1009.48413 L1648.62193,1009.4791 C1650.0744,1010.17438 1651.73492,1010.57038 1653.49993,1010.57038 C1659.1938,1010.57038 1663.80957,1006.46488 1663.80957,1001.40044 C1663.80957,996.33614 1659.1938,992.23064 1653.49993,992.23064 Z" id="wechat-(1)"></path>
        </g>
    </g>
</svg>