<?xml version="1.0" encoding="UTF-8"?>
<svg width="15px" height="14px" viewBox="0 0 15 14" version="1.1" xmlns="http://www.w3.org/2000/svg" xmlns:xlink="http://www.w3.org/1999/xlink">
    <!-- Generator: Sketch 50.2 (55047) - http://www.bohemiancoding.com/sketch -->
    <title>Page 1</title>
    <desc>Created with Sketch.</desc>
    <defs>
        <polygon id="path-1" points="0.00015 0.676666667 14.8845 0.676666667 14.8845 13.9995333 0.00015 13.9995333"></polygon>
    </defs>
    <g id="Page-1" stroke="none" stroke-width="1" fill="none" fill-rule="evenodd">
        <g id="Home" transform="translate(-420.000000, -1136.000000)">
            <g id="Page-1" transform="translate(420.000000, 1136.000000)">
                <polygon id="Fill-1" fill="#585858" points="5 8.47 10 8.47 10 8 5 8"></polygon>
                <polygon id="Fill-2" fill="#585858" points="5 9.47 10 9.47 10 9 5 9"></polygon>
                <g id="Group-10">
                    <g id="Group-5">
                        <mask id="mask-2" fill="white">
                            <use xlink:href="#path-1"></use>
                        </mask>
                        <g id="Clip-4"></g>
                        <path d="M13.86915,5.83442222 L12.92115,2.11975556 C12.70365,1.27042222 11.89965,0.6762 10.96365,0.6762 L3.92115,0.6762 C2.98665,0.6762 2.18265,1.26886667 1.96515,2.11975556 L1.01565,5.83442222 C0.41115,6.16886667 0.00015,6.82842222 0.00015,7.58753333 L0.00015,11.8902 L0.81915,11.8902 L0.81915,13.1455333 C0.81915,13.6153111 1.18815,13.9995333 1.64265,13.9995333 L2.98965,13.9995333 C3.44415,13.9995333 3.81315,13.6153111 3.81315,13.1455333 L3.81315,11.8902 L11.07165,11.8902 L11.07165,13.1455333 C11.07165,13.6153111 11.44065,13.9995333 11.89515,13.9995333 L13.24215,13.9995333 C13.69665,13.9995333 14.06565,13.6153111 14.06565,13.1455333 L14.06565,11.8902 L14.88465,11.8902 L14.88465,7.58753333 C14.88465,6.82842222 14.47215,6.16886667 13.86915,5.83442222 Z M2.67015,2.3142 C2.80065,1.80242222 3.32715,1.4322 3.92115,1.4322 L10.96365,1.4322 C11.55915,1.4322 12.08565,1.80242222 12.21615,2.3142 L13.05465,5.60264444 C13.02615,5.60108889 12.99765,5.60108889 12.96915,5.60108889 L1.91565,5.60108889 C1.88715,5.60108889 1.85865,5.60108889 1.83015,5.60264444 L2.67015,2.3142 Z M3.08415,13.1455333 C3.08415,13.1984222 3.04215,13.2419778 2.98965,13.2419778 L1.64265,13.2419778 C1.59015,13.2419778 1.54815,13.1984222 1.54815,13.1455333 L1.54815,11.8902 L3.08415,11.8902 L3.08415,13.1455333 Z M13.33665,13.1455333 C13.33665,13.1984222 13.29465,13.2419778 13.24215,13.2419778 L11.89515,13.2419778 C11.84265,13.2419778 11.80065,13.1984222 11.80065,13.1455333 L11.80065,11.8902 L13.33665,11.8902 L13.33665,13.1455333 Z M14.15415,11.1342 L14.06565,11.1342 L11.07165,11.1342 L3.81315,11.1342 L0.81915,11.1342 L0.72915,11.1342 L0.72915,7.58753333 C0.72915,6.90931111 1.26165,6.35708889 1.91565,6.35708889 L12.96915,6.35708889 C13.62315,6.35708889 14.15415,6.90931111 14.15415,7.58753333 L14.15415,11.1342 Z" id="Fill-3" fill="#585858" mask="url(#mask-2)"></path>
                    </g>
                    <path d="M12.0066,7.32931111 L12.0021,7.32931111 C11.8416,7.32931111 11.6856,7.36197778 11.5386,7.42264444 C11.4801,7.44753333 11.4276,7.48331111 11.3841,7.52842222 L11.0541,7.87064444 C10.8621,8.06975556 10.7541,8.33108889 10.7481,8.60642222 L10.7481,8.62975556 C10.7481,8.97664444 10.8786,9.30642222 11.1186,9.55375556 C11.3586,9.80264444 11.6736,9.93797778 12.0066,9.93797778 L12.0111,9.93797778 C12.1716,9.93797778 12.3276,9.90686667 12.4746,9.84464444 C12.5331,9.82131111 12.5841,9.78553333 12.6291,9.74042222 L12.9606,9.39664444 C13.1511,9.19908889 13.2591,8.93775556 13.2651,8.66086667 L13.2651,8.63908889 C13.2666,8.29064444 13.1346,7.96242222 12.8946,7.71353333 C12.6546,7.4662 12.3396,7.32931111 12.0066,7.32931111 Z M12.6081,8.64686667 C12.6066,8.74642222 12.5661,8.84131111 12.4956,8.91597778 L12.1956,9.22708889 C12.1356,9.24731111 12.0726,9.2582 12.0096,9.2582 L12.0066,9.2582 C11.8491,9.2582 11.6991,9.19286667 11.5836,9.07308889 C11.4681,8.95331111 11.4051,8.7962 11.4051,8.62664444 L11.4051,8.62042222 C11.4081,8.52086667 11.4471,8.42597778 11.5176,8.35286667 L11.8191,8.04175556 C11.8776,8.02153333 11.9406,8.01064444 12.0051,8.01064444 L12.0066,8.01064444 C12.1641,8.01064444 12.3156,8.07597778 12.4296,8.19575556 C12.5451,8.31553333 12.6081,8.47108889 12.6081,8.63597778 L12.6081,8.64686667 Z" id="Fill-6" fill="#585858"></path>
                    <path d="M2.8776,7.32931111 L2.8731,7.32931111 C2.7126,7.32931111 2.5566,7.36197778 2.4096,7.42264444 C2.3511,7.44753333 2.2986,7.48331111 2.2551,7.52842222 L1.9251,7.87064444 C1.7331,8.06975556 1.6251,8.33108889 1.6191,8.60642222 L1.6191,8.62975556 C1.6191,8.97664444 1.7496,9.30642222 1.9896,9.55375556 C2.2296,9.80264444 2.5446,9.93797778 2.8776,9.93797778 L2.8821,9.93797778 C3.0426,9.93797778 3.1986,9.90686667 3.3456,9.84464444 C3.4041,9.82131111 3.4551,9.78553333 3.5001,9.74042222 L3.8316,9.39664444 C4.0221,9.19908889 4.1301,8.93775556 4.1361,8.66086667 L4.1361,8.63908889 C4.1376,8.29064444 4.0056,7.96242222 3.7656,7.71353333 C3.5256,7.4662 3.2106,7.32931111 2.8776,7.32931111 Z M3.4791,8.64686667 C3.4776,8.74642222 3.4371,8.84131111 3.3666,8.91597778 L3.0666,9.22708889 C3.0066,9.24731111 2.9436,9.2582 2.8806,9.2582 L2.8776,9.2582 C2.7201,9.2582 2.5701,9.19286667 2.4546,9.07308889 C2.3391,8.95331111 2.2761,8.7962 2.2761,8.62664444 L2.2761,8.62042222 C2.2776,8.52086667 2.3181,8.42597778 2.3886,8.35286667 L2.6901,8.04175556 C2.7486,8.02153333 2.8116,8.01064444 2.8761,8.01064444 L2.8776,8.01064444 C3.0351,8.01064444 3.1866,8.07597778 3.3006,8.19575556 C3.4161,8.31553333 3.4791,8.47108889 3.4791,8.63597778 L3.4791,8.64686667 Z" id="Fill-8" fill="#585858"></path>
                </g>
            </g>
        </g>
    </g>
</svg>