<?xml version="1.0" encoding="UTF-8"?>
<svg width="33px" height="39px" viewBox="0 0 33 39" version="1.1" xmlns="http://www.w3.org/2000/svg" xmlns:xlink="http://www.w3.org/1999/xlink">
    <!-- Generator: Sketch 50.2 (55047) - http://www.bohemiancoding.com/sketch -->
    <title>Group</title>
    <desc>Created with Sketch.</desc>
    <defs></defs>
    <g id="Page-1" stroke="none" stroke-width="1" fill="none" fill-rule="evenodd">
        <g id="Home" transform="translate(-286.000000, -1497.000000)" fill="#00AE9E" fill-rule="nonzero">
            <g id="Group" transform="translate(286.000000, 1497.000000)">
                <path d="M15.3529412,39 C15.2087518,39 14.9946198,39 14.8504304,38.9346734 C14.1337877,38.7396685 13.6302009,38.1546539 13.6302009,37.439961 L13.6302009,31.0048001 C13.6302009,30.4197855 13.0566714,29.9000975 12.4110473,29.9000975 L10.043759,29.9000975 C4.51936872,29.9000975 0,25.8049951 0,20.800195 L0,9.0999025 C0,4.09510238 4.51936872,0 10.043759,0 L22.956241,0 C28.4806313,0 33,4.09510238 33,9.0999025 L33,20.800195 C33,24.7646441 30.2012195,28.2103803 26.0412482,29.4457361 C24.0322812,30.0307508 22.3106169,31.1354534 21.1635581,32.6954924 L16.7873027,38.3506338 C16.4279053,38.7406435 15.9264706,39 15.3529412,39 Z M10.043759,1.29873247 C5.30918221,1.29873247 1.43543759,4.80882022 1.43543759,9.09892747 L1.43543759,20.79922 C1.43543759,25.0893272 5.30918221,28.599415 10.043759,28.599415 L12.4110473,28.599415 C13.8454089,28.599415 15.0656385,29.7041176 15.0656385,31.0038251 L15.0656385,37.438986 C15.0656385,37.6339908 15.2087518,37.6339908 15.2797704,37.6993175 C15.3518651,37.6993175 15.4949785,37.7636691 15.5670732,37.6349659 L20.0154232,31.9798245 C21.3787661,30.2247806 23.3145624,28.9903998 25.6108321,28.2747319 C29.197274,27.2343809 31.5645624,24.2449561 31.5645624,20.8645466 L31.5645624,9.0999025 C31.5645624,4.80979524 27.6908178,1.29970749 22.956241,1.29970749 L10.043759,1.29970749 L10.043759,1.29873247 Z" id="Shape"></path>
                <path d="M20.4775996,26.6341463 L14.5849004,26.6341463 C13.3318869,26.6341463 12.375,25.7578948 12.375,24.6128049 C12.375,23.4677149 13.3318869,22.5914634 14.5849004,22.5914634 L15.3219021,22.5914634 L15.3219021,14.5060976 L14.5849004,14.5060976 C13.3318869,14.5060976 12.375,13.629846 12.375,12.4847561 C12.375,11.3396662 13.3318869,10.4634146 14.5849004,10.4634146 L17.5306975,10.4634146 C18.783711,10.4634146 19.7417028,11.3396662 19.7417028,12.4847561 L19.7417028,22.5914634 L20.4775996,22.5914634 C21.7295082,22.5914634 22.6875,23.4677149 22.6875,24.6128049 C22.6875,25.7578948 21.7295082,26.6341463 20.4775996,26.6341463 Z M14.5849004,23.9386875 C14.1429203,23.9386875 13.8478986,24.2075259 13.8478986,24.6128049 C13.8478986,25.0170732 14.1429203,25.2869223 14.5849004,25.2869223 L20.4775996,25.2869223 C20.9184748,25.2869223 21.2146014,25.0170732 21.2146014,24.6128049 C21.2146014,24.2085366 20.9184748,23.9386875 20.4775996,23.9386875 L19.0047011,23.9386875 C18.5638259,23.9386875 18.2676993,23.6688384 18.2676993,23.2645701 L18.2676993,12.4847561 C18.2676993,12.0804878 17.8997509,11.8106387 17.5306975,11.8106387 L14.5849004,11.8106387 C14.1429203,11.8106387 13.8478986,12.0794771 13.8478986,12.4847561 C13.8478986,12.8890244 14.1429203,13.1588735 14.5849004,13.1588735 L16.0589039,13.1588735 C16.499779,13.1588735 16.7948007,13.4277119 16.7948007,13.8329909 L16.7948007,23.2655808 C16.7948007,23.6698491 16.499779,23.9396982 16.0589039,23.9396982 L14.5849004,23.9396982 L14.5849004,23.9386875 Z" id="Shape"></path>
                <path d="M17.53125,9.51219512 C15.8306735,9.51219512 14.4375,8.22820928 14.4375,6.65853659 C14.4375,5.08886389 15.8306735,3.80487805 17.53125,3.80487805 C19.2318265,3.80487805 20.625,5.08886389 20.625,6.65853659 C20.625,8.22820928 19.2318265,9.51219512 17.53125,9.51219512 Z M17.53125,5.23224231 C16.6809618,5.23224231 15.984955,5.87423523 15.984955,6.65853659 C15.984955,7.44283794 16.6809618,8.08483086 17.53125,8.08483086 C18.3815382,8.08483086 19.077545,7.44283794 19.077545,6.65853659 C19.077545,5.87423523 18.3815382,5.23224231 17.53125,5.23224231 Z" id="Shape"></path>
            </g>
        </g>
    </g>
</svg>