<?xml version="1.0" encoding="UTF-8"?>
<svg width="254px" height="45px" viewBox="0 0 254 45" version="1.1" xmlns="http://www.w3.org/2000/svg" xmlns:xlink="http://www.w3.org/1999/xlink">
    <!-- Generator: Sketch 50.2 (55047) - http://www.bohemiancoding.com/sketch -->
    <title>Page 1</title>
    <desc>Created with Sketch.</desc>
    <defs>
        <polygon id="path-1" points="9.10330165e-05 0.0420769231 45.2171113 0.0420769231 45.2171113 45 9.10330165e-05 45"></polygon>
    </defs>
    <g id="Symbols" stroke="none" stroke-width="1" fill="none" fill-rule="evenodd">
        <g id="666666666666666" transform="translate(-243.000000, -71.000000)">
            <g id="Page-1" transform="translate(243.000000, 71.000000)">
                <path d="M64.7786494,18.615662 C64.4188267,18.1900052 63.9754434,17.862442 63.4502046,17.6329727 C62.9249659,17.4035033 62.3178718,17.2896445 61.6272169,17.2896445 C60.9382674,17.2896445 60.3004775,17.4192684 59.7121419,17.6785162 C59.1238063,17.937764 58.6139154,18.3003606 58.1824693,18.7645544 C57.7527285,19.2287481 57.415075,19.7805255 57.1729195,20.4216383 C56.9290587,21.0609995 56.8079809,21.7546625 56.8079809,22.4991242 C56.8079809,23.2611025 56.9290587,23.9582689 57.1729195,24.5906234 C57.415075,25.2229778 57.7493179,25.7712519 58.1722374,26.2371973 C58.5951569,26.701391 59.0931105,27.062236 59.6660982,27.3214838 C60.2373806,27.5807316 60.851296,27.7103555 61.5112551,27.7103555 C62.2633015,27.7103555 62.9300819,27.5579598 63.5081855,27.2531685 C64.0879945,26.9483771 64.5671896,26.5227202 64.9440655,25.9726945 L68,28.1903143 C67.2939973,29.1502318 66.4004093,29.8579083 65.319236,30.3150953 C64.2380628,30.7722823 63.1244884,31 61.9802183,31 C60.6790587,31 59.4802183,30.8020608 58.3836971,30.4061824 C57.287176,30.010304 56.3373124,29.4427615 55.5375171,28.7035549 C54.739427,27.9643483 54.116985,27.0709943 53.6684857,26.018238 C53.223397,24.9689851 53,23.7953632 53,22.4991242 C53,21.2063885 53.223397,20.0327666 53.6684857,18.981762 C54.116985,17.9307573 54.739427,17.0356517 55.5375171,16.2964451 C56.3373124,15.5572385 57.287176,14.989696 58.3836971,14.5938176 C59.4802183,14.1979392 60.6790587,14 61.9802183,14 C62.4508868,14 62.9420191,14.0420402 63.4502046,14.1261206 C63.9583902,14.2102009 64.4614598,14.3415765 64.9560027,14.5255023 C65.4488404,14.7076765 65.9229195,14.9529109 66.3765348,15.2559505 C66.8318554,15.5624936 67.239427,15.9338485 67.600955,16.3770222 L64.7786494,18.615662 Z" id="Fill-1" fill="#00AE9E"></path>
                <path d="M72.0280072,22.5 C72.0280072,23.2618999 72.1560809,23.9589944 72.4140321,24.5912837 C72.6701794,25.223573 73.0399696,25.7717906 73.5197949,26.2359365 C74.0014241,26.7000824 74.5768537,27.0626417 75.2496914,27.3218628 C75.9207253,27.5810839 76.6711288,27.7089429 77.4990981,27.7089429 C78.3288712,27.7089429 79.0792747,27.5810839 79.7503086,27.3218628 C80.4213424,27.0626417 80.9985759,26.7000824 81.4784012,26.2359365 C81.9600304,25.7717906 82.3298206,25.223573 82.5859679,24.5912837 C82.8421153,23.9589944 82.9719928,23.2618999 82.9719928,22.5 C82.9719928,21.7538636 82.8421153,21.060272 82.5859679,20.4209767 C82.3298206,19.7816814 81.9600304,19.2299608 81.4784012,18.7640635 C80.9985759,18.2999176 80.4213424,17.9391098 79.7503086,17.6798887 C79.0792747,17.4206676 78.3288712,17.2910571 77.4990981,17.2910571 C76.6711288,17.2910571 75.9207253,17.4206676 75.2496914,17.6798887 C74.5768537,17.9391098 74.0014241,18.2999176 73.5197949,18.7640635 C73.0399696,19.2299608 72.6701794,19.7816814 72.4140321,20.4209767 C72.1560809,21.060272 72.0280072,21.7538636 72.0280072,22.5 M68,22.5 C68,21.205646 68.2363049,20.0321451 68.707111,18.9812487 C69.1815247,17.9303524 69.8399316,17.035339 70.6841356,16.29796 C71.5301434,15.5588296 72.5348903,14.9913456 73.6947688,14.5937564 C74.8546473,14.1979188 76.122757,14 77.4990981,14 C78.8754391,14 80.1435488,14.1979188 81.3052312,14.5937564 C82.4651097,14.9913456 83.4698566,15.5588296 84.3140606,16.29796 C85.1600684,17.035339 85.8202791,17.9303524 86.2910852,18.9812487 C86.7654989,20.0321451 87,21.205646 87,22.5 C87,23.7961055 86.7654989,24.9678549 86.2910852,26.0187513 C85.8202791,27.0696476 85.1600684,27.964661 84.3140606,28.7037915 C83.4698566,29.4429219 82.4651097,30.0104059 81.3052312,30.4062436 C80.1435488,30.8020812 78.8754391,31 77.4990981,31 C76.122757,31 74.8546473,30.8020812 73.6947688,30.4062436 C72.5348903,30.0104059 71.5301434,29.4429219 70.6841356,28.7037915 C69.8399316,27.964661 69.1815247,27.0696476 68.707111,26.0187513 C68.2363049,24.9678549 68,23.7961055 68,22.5" id="Fill-3" fill="#00AE9E"></path>
                <polygon id="Fill-5" fill="#00AE9E" points="90 14 95.6040439 14 99.5215341 25.0437419 99.5697706 25.0437419 103.418352 14 109 14 109 31 105.296128 31 105.296128 17.9610221 105.247892 17.9610221 100.829087 29.5403854 98.0038081 29.5403854 93.7521081 17.9610221 93.7038716 17.9610221 93.7038716 31 90 31"></polygon>
                <polygon id="Fill-7" fill="#00AE9E" points="112 14.0477219 117.650558 14 121.521534 25.0604621 121.52498 25.1100194 125.420074 14.0477219 131 14.0477219 131 31 127.296128 31 127.296128 17.9976247 127.247892 17.9976247 122.829087 29.5444828 120.003808 29.5444828 115.752108 17.9976247 115.703872 17.9976247 115.703872 31 112 31"></polygon>
                <path d="M138.028007,22.5 C138.028007,23.2618999 138.156081,23.9589944 138.414032,24.5912837 C138.670179,25.223573 139.03997,25.7717906 139.519795,26.2359365 C140.001424,26.7000824 140.576854,27.0626417 141.249691,27.3218628 C141.920725,27.5810839 142.671129,27.7089429 143.499098,27.7089429 C144.328871,27.7089429 145.079275,27.5810839 145.750309,27.3218628 C146.421342,27.0626417 146.998576,26.7000824 147.478401,26.2359365 C147.96003,25.7717906 148.329821,25.223573 148.585968,24.5912837 C148.842115,23.9589944 148.971993,23.2618999 148.971993,22.5 C148.971993,21.7538636 148.842115,21.060272 148.585968,20.4209767 C148.329821,19.7816814 147.96003,19.2299608 147.478401,18.7640635 C146.998576,18.2999176 146.421342,17.9391098 145.750309,17.6798887 C145.079275,17.4206676 144.328871,17.2910571 143.499098,17.2910571 C142.671129,17.2910571 141.920725,17.4206676 141.249691,17.6798887 C140.576854,17.9391098 140.001424,18.2999176 139.519795,18.7640635 C139.03997,19.2299608 138.670179,19.7816814 138.414032,20.4209767 C138.156081,21.060272 138.028007,21.7538636 138.028007,22.5 M134,22.5 C134,21.205646 134.236305,20.0321451 134.707111,18.9812487 C135.181525,17.9303524 135.839932,17.035339 136.684136,16.29796 C137.530143,15.5588296 138.53489,14.9913456 139.694769,14.5937564 C140.854647,14.1979188 142.122757,14 143.499098,14 C144.875439,14 146.143549,14.1979188 147.305231,14.5937564 C148.46511,14.9913456 149.469857,15.5588296 150.314061,16.29796 C151.160068,17.035339 151.820279,17.9303524 152.291085,18.9812487 C152.765499,20.0321451 153,21.205646 153,22.5 C153,23.7961055 152.765499,24.9678549 152.291085,26.0187513 C151.820279,27.0696476 151.160068,27.964661 150.314061,28.7037915 C149.469857,29.4429219 148.46511,30.0104059 147.305231,30.4062436 C146.143549,30.8020812 144.875439,31 143.499098,31 C142.122757,31 140.854647,30.8020812 139.694769,30.4062436 C138.53489,30.0104059 137.530143,29.4429219 136.684136,28.7037915 C135.839932,27.964661 135.181525,27.0696476 134.707111,26.0187513 C134.236305,24.9678549 134,23.7961055 134,22.5" id="Fill-9" fill="#00AE9E"></path>
                <polygon id="Fill-11" fill="#00AE9E" points="155 14 160.371419 14 167.997622 25.8131226 168.047238 25.8131226 168.047238 14 172 14 172 31 166.830721 31 159.002378 18.8978995 158.950924 18.8978995 158.950924 31 155 31"></polygon>
                <path d="M176.710794,21.4913382 L180.339182,21.4913382 C181.237819,21.4913382 181.967257,21.3864227 182.529375,21.1784322 C183.089613,20.9704417 183.525772,20.7145951 183.837851,20.4108922 C184.14993,20.1071893 184.360489,19.7777176 184.473288,19.4261585 C184.586088,19.0745994 184.640608,18.7543309 184.640608,18.465353 C184.640608,18.1782157 184.586088,17.8579472 184.473288,17.5045474 C184.360489,17.1529883 184.14993,16.8253573 183.837851,16.5216544 C183.525772,16.2161109 183.089613,15.9602642 182.529375,15.7522737 C181.967257,15.5442832 181.237819,15.4393677 180.339182,15.4393677 L176.710794,15.4393677 L176.710794,21.4913382 Z M175,14 L179.820304,14 C180.062823,14 180.389942,14.0073625 180.805421,14.0239281 C181.220899,14.0404937 181.670218,14.0883499 182.153376,14.1674968 C182.636535,14.2484842 183.129093,14.3754872 183.631051,14.5521871 C184.13113,14.7270463 184.582328,14.9847337 184.979007,15.3197272 C185.375685,15.6565613 185.704684,16.0799047 185.964123,16.5934387 C186.223563,17.1051321 186.351402,17.7291035 186.351402,18.465353 C186.351402,19.2825899 186.201003,19.9544175 185.898324,20.4826765 C185.595645,21.0109355 185.215886,21.4398008 184.759047,21.7674318 C184.300329,22.0950628 183.794611,22.3398657 183.241893,22.5 C182.689174,22.6601343 182.160896,22.7724123 181.660818,22.8349935 L187,31 L185.056086,31 L179.899264,22.9325466 L176.710794,22.9325466 L176.710794,31 L175,31 L175,14 Z" id="Fill-13" fill="#00AE9E"></path>
                <polygon id="Fill-15" fill="#00AE9E" points="188 14 199.573506 14 199.573506 15.4412083 189.764136 15.4412083 189.764136 21.4913382 198.957027 21.4913382 198.957027 22.9325466 189.764136 22.9325466 189.764136 29.5587917 200 29.5587917 200 31 188 31"></polygon>
                <path d="M208.563937,15.7285328 L204.40619,25.0449377 L212.59381,25.0449377 L208.563937,15.7285328 Z M207.782076,14 L209.495594,14 L217,31 L215.136686,31 L213.196647,26.4863021 L203.752203,26.4863021 L201.737266,31 L200,31 L207.782076,14 Z" id="Fill-17" fill="#00AE9E"></path>
                <polygon id="Fill-19" fill="#00AE9E" points="219 14 220.666667 14 220.666667 29.5587917 229 29.5587917 229 31 219 31"></polygon>
                <polygon id="Fill-21" fill="#00AE9E" points="231.720823 15.4412083 226 15.4412083 226 14 239 14 239 15.4412083 233.279177 15.4412083 233.279177 31 231.720823 31"></polygon>
                <polygon id="Fill-23" fill="#00AE9E" points="246.211634 23.6761585 240 14 241.886881 14 246.998267 22.0674534 252.230941 14 254 14 247.786634 23.6761585 247.786634 31 246.211634 31"></polygon>
                <g id="Group-27">
                    <mask id="mask-2" fill="white">
                        <use xlink:href="#path-1"></use>
                    </mask>
                    <g id="Clip-26"></g>
                    <path d="M22.8379385,0.587 C17.9460154,0.587 13.2593231,2.41461538 9.63947692,5.73192308 C9.3334,6.01146154 9.0114,6.32992308 8.65578462,6.705 C8.01532308,7.18269231 7.45624615,7.64092308 6.95378462,8.10092308 C3.27555385,11.4713077 1.02332308,16.066 0.611092308,21.0393077 C-0.0859846154,29.4838462 4.67855385,37.4259231 12.4667077,40.7998462 C15.4443231,42.8574615 18.8907846,44.0870769 22.4752462,44.3825385 C23.0414,44.4303077 23.6164,44.4550769 24.1860923,44.4550769 C29.3133231,44.4550769 34.2282462,42.539 38.0232462,39.0606923 C41.8412462,35.5629231 44.1766308,30.7948462 44.6030154,25.6322308 C45.0294,20.4784615 43.5096308,15.399 40.3267846,11.3297692 C39.6084769,9.93207692 38.7627846,8.65823077 37.7826308,7.50469231 C34.4051692,3.51684615 29.6760154,1.08415385 24.4709385,0.654230769 C23.9277846,0.61 23.3793231,0.587 22.8379385,0.587 M24.1860923,45 C23.6004769,45 23.0113231,44.9752308 22.4292462,44.9274615 C18.7510154,44.6231538 15.2125538,43.3599231 12.2030923,41.274 C4.24686154,37.8328462 -0.6486,29.6731538 0.0697076923,20.9950769 C0.492553846,15.8837692 2.80493846,11.1616923 6.58401538,7.69930769 C7.10063077,7.22515385 7.6774,6.75453846 8.29663077,6.29807692 C8.62393846,5.946 8.95478462,5.61869231 9.27147692,5.32853846 C13.4026308,1.54238462 18.9297077,-0.354230769 24.5134,0.111076923 C29.8670923,0.553384615 34.7271692,3.05330769 38.2001692,7.15084615 C39.2068615,8.338 40.0755538,9.64546154 40.7850154,11.0396154 C44.0244769,15.1707692 45.5831692,20.3864615 45.1444,25.6782308 C44.7091692,30.9770769 42.3100923,35.8725385 38.3930154,39.4640769 C34.4954,43.0343846 29.4513231,45 24.1860923,45" id="Fill-25" fill="#00AE9E" mask="url(#mask-2)"></path>
                </g>
                <path d="M4.01373856,20 C4.74945161,15.3668104 7.13078981,11.1246663 10.8204741,7.94043952 C13.7169968,5.43879647 17.2306289,3.75241323 21,3 C16.057565,3.10823578 11.5005917,4.95871842 8.04070192,7.94393099 C5.82429687,10.7179092 4.38622804,14.0802013 4.06562764,17.7392688 C3.99891311,18.4969193 3.98594084,19.2510783 4.01373856,20" id="Fill-28" fill="#00AE9E"></path>
                <path d="M3.33396863,24.0600559 C2.96150812,22.2697526 2.84571729,20.4219872 3.01168415,18.5544693 C3.24905535,15.8860734 4.04801209,13.3272147 5.33715002,11 C2.95764842,13.8623304 1.40991097,17.3585395 1.07218771,21.1707901 C0.614813926,26.3100559 2.34202717,31.3110535 5.93540265,35.2561852 C6.865589,36.277933 7.89226771,37.193735 9,38 C8.89964795,37.89585 8.79736604,37.7952913 8.70087368,37.6875499 C5.19434133,33.8375898 3.32624924,29.052075 3.33396863,24.0600559" id="Fill-30" fill="#00AE9E"></path>
                <path d="M22.5330933,1.81810096 C23.5865794,1.90527018 24.6153191,2.0760507 25.6122422,2.31976873 C25.8915221,2.33222148 26.170802,2.33044252 26.4465466,2.35356905 C31.2066776,2.75027796 35.5867758,4.73560151 39,8 C38.7154173,7.60507005 38.4202291,7.21725595 38.1038298,6.84367356 C34.7842881,2.89971092 30.1372831,0.49277296 25.0183306,0.0676006226 C24.480982,0.0231265288 23.9418658,0 23.4133552,0 C19.1746645,0 15.2134861,1.43028686 12,3.84078274 C14.7327005,2.47453858 17.7588216,1.74872137 20.8644845,1.74872137 C21.419509,1.74872137 21.9816039,1.7718479 22.5330933,1.81810096" id="Fill-32" fill="#00AE9E"></path>
                <path d="M42.1556072,21.4568807 C41.7438185,26.2247001 39.4957699,30.6300635 35.8232503,33.865067 C35.0986434,34.7813691 34.2856699,35.6417784 33.3878643,36.4310515 C29.6853001,39.6812985 24.8940582,41.4715596 19.8925036,41.4715596 C19.5973588,41.4715596 19.2986794,41.4478476 19,41.4359915 C20.0197516,41.6798871 21.0677805,41.8526464 22.1352501,41.9356387 C22.6654503,41.9779817 23.2080217,42 23.7452912,42 C33.6847764,42 42.1131912,34.552717 42.9332341,25.0458716 C43.1417795,22.6289344 42.8590061,20.2458716 42.1237952,18 C42.2404393,19.1381793 42.2563453,20.2932957 42.1556072,21.4568807" id="Fill-34" fill="#00AE9E"></path>
                <path d="M32,37.8623352 C29.2478207,39.3271148 26.2042341,40.1048569 23.0797011,40.1048569 C22.52207,40.1048569 21.9572437,40.0797684 21.3996126,40.0295915 C16.0337623,39.5548408 11.1607859,36.8665166 7.68188737,32.4586684 C7.06309672,31.6770666 6.50366681,30.8530074 6,30 C6.78428117,32.2425217 7.93012315,34.3441621 9.41594022,36.2238662 C11.0546562,38.2984883 13.0117615,39.9774847 15.184724,41.2164683 C16.3755362,41.5754262 17.607721,41.8166613 18.8686869,41.9285944 C19.4065311,41.9768414 19.9497717,42 20.4858171,42 C24.7633873,42 28.7603432,40.459955 32,37.8623352" id="Fill-36" fill="#00AE9E"></path>
                <path d="M32,5 C37.4636383,8.97222222 40.8337487,15.8762376 40.2516539,23.3880638 C40.0436432,26.0767327 39.337413,28.6563531 38.2017411,31 C40.2852041,28.1236249 41.6406292,24.6126238 41.9375479,20.7834158 C42.1019435,18.6632288 41.9392254,16.5680693 41.4795886,14.5587184 C40.8119411,13.0856711 39.9664779,11.6912816 38.946554,10.409516 C37.0341967,8.00330033 34.6571701,6.17092959 32,5" id="Fill-38" fill="#00AE9E"></path>
                <path d="M4.01373856,20 C4.74945161,15.3668104 7.13078981,11.1246663 10.8204741,7.94043952 C13.7169968,5.43879647 17.2306289,3.75241323 21,3 C16.057565,3.10823578 11.5005917,4.95871842 8.04070192,7.94393099 C5.82429687,10.7179092 4.38622804,14.0802013 4.06562764,17.7392688 C3.99891311,18.4969193 3.98594084,19.2510783 4.01373856,20" id="Fill-40" fill="#00AE9E"></path>
                <path d="M3.33396863,24.0600559 C2.96150812,22.2697526 2.84571729,20.4219872 3.01168415,18.5544693 C3.24905535,15.8860734 4.04801209,13.3272147 5.33715002,11 C2.95764842,13.8623304 1.40991097,17.3585395 1.07218771,21.1707901 C0.614813926,26.3100559 2.34202717,31.3110535 5.93540265,35.2561852 C6.865589,36.277933 7.89226771,37.193735 9,38 C8.89964795,37.89585 8.79736604,37.7952913 8.70087368,37.6875499 C5.19434133,33.8375898 3.32624924,29.052075 3.33396863,24.0600559" id="Fill-42" fill="#00AE9E"></path>
                <path d="M22.5330933,1.81810096 C23.5865794,1.90527018 24.6153191,2.0760507 25.6122422,2.31976873 C25.8915221,2.33222148 26.170802,2.33044252 26.4465466,2.35356905 C31.2066776,2.75027796 35.5867758,4.73560151 39,8 C38.7154173,7.60507005 38.4202291,7.21725595 38.1038298,6.84367356 C34.7842881,2.89971092 30.1372831,0.49277296 25.0183306,0.0676006226 C24.480982,0.0231265288 23.9418658,0 23.4133552,0 C19.1746645,0 15.2134861,1.43028686 12,3.84078274 C14.7327005,2.47453858 17.7588216,1.74872137 20.8644845,1.74872137 C21.419509,1.74872137 21.9816039,1.7718479 22.5330933,1.81810096" id="Fill-44" fill="#00AE9E"></path>
                <path d="M24.5193835,4.69684919 C14.8166633,4.69684919 6.58813809,12.0102988 5.78811762,21.3484246 C5.63350692,23.1442847 5.75216164,24.9384113 6.14048619,26.6805343 C6.84162773,28.1626389 7.78726991,29.6066075 8.92707436,30.9049658 C12.1685056,34.5920261 16.7043521,36.8420516 21.700435,37.2407464 C26.2524616,37.5961048 30.5995392,36.39482 34.2598576,33.815438 C37.0949863,30.9032324 38.8748071,27.0809626 39.2145911,23.0905476 C39.8905635,15.2085245 35.0077419,7.72692974 27.3383321,4.89619659 C26.9769745,4.84939329 26.5365138,4.79392271 26.0924575,4.75925359 C25.5692981,4.71765066 25.0389474,4.69684919 24.5193835,4.69684919 M23.2663178,38 C22.7323715,38 22.1858407,37.9774651 21.6411076,37.9341287 C16.4526602,37.5215662 11.7424273,35.184868 8.37694792,31.3556643 C7.1921985,30.0070358 6.21060034,28.5075966 5.45732264,26.8954828 C5.03124431,25.0181503 4.9071962,23.1546854 5.06720029,21.2894871 C5.89778335,11.5942694 14.4427211,4 24.5193835,4 C25.0587232,4 25.6070518,4.02253492 26.1499871,4.06587132 C26.6120214,4.10227389 27.0686623,4.15947792 27.5217076,4.22534924 C35.5632617,7.18609157 40.63665,14.9589069 39.9355085,23.1477516 C39.5795443,27.2941776 37.7332049,31.2672581 34.7362743,34.3354747 C31.3240521,36.7467115 27.3742881,38 23.2663178,38" id="Fill-46" fill="#00AE9E"></path>
                <path d="M42.1556072,21.4568807 C41.7438185,26.2247001 39.4957699,30.6300635 35.8232503,33.865067 C35.0986434,34.7813691 34.2856699,35.6417784 33.3878643,36.4310515 C29.6853001,39.6812985 24.8940582,41.4715596 19.8925036,41.4715596 C19.5973588,41.4715596 19.2986794,41.4478476 19,41.4359915 C20.0197516,41.6798871 21.0677805,41.8526464 22.1352501,41.9356387 C22.6654503,41.9779817 23.2080217,42 23.7452912,42 C33.6847764,42 42.1131912,34.552717 42.9332341,25.0458716 C43.1417795,22.6289344 42.8590061,20.2458716 42.1237952,18 C42.2404393,19.1381793 42.2563453,20.2932957 42.1556072,21.4568807" id="Fill-48" fill="#00AE9E"></path>
                <path d="M32,37.8623352 C29.2478207,39.3271148 26.2042341,40.1048569 23.0797011,40.1048569 C22.52207,40.1048569 21.9572437,40.0797684 21.3996126,40.0295915 C16.0337623,39.5548408 11.1607859,36.8665166 7.68188737,32.4586684 C7.06309672,31.6770666 6.50366681,30.8530074 6,30 C6.78428117,32.2425217 7.93012315,34.3441621 9.41594022,36.2238662 C11.0546562,38.2984883 13.0117615,39.9774847 15.184724,41.2164683 C16.3755362,41.5754262 17.607721,41.8166613 18.8686869,41.9285944 C19.4065311,41.9768414 19.9497717,42 20.4858171,42 C24.7633873,42 28.7603432,40.459955 32,37.8623352" id="Fill-50" fill="#00AE9E"></path>
                <path d="M32,5 C37.4636383,8.97222222 40.8337487,15.8762376 40.2516539,23.3880638 C40.0436432,26.0767327 39.337413,28.6563531 38.2017411,31 C40.2852041,28.1236249 41.6406292,24.6126238 41.9375479,20.7834158 C42.1019435,18.6632288 41.9392254,16.5680693 41.4795886,14.5587184 C40.8119411,13.0856711 39.9664779,11.6912816 38.946554,10.409516 C37.0341967,8.00330033 34.6571701,6.17092959 32,5" id="Fill-52" fill="#00AE9E"></path>
            </g>
        </g>
    </g>
</svg>