<?xml version="1.0" encoding="UTF-8"?>
<svg width="20px" height="21px" viewBox="0 0 20 21" version="1.1" xmlns="http://www.w3.org/2000/svg" xmlns:xlink="http://www.w3.org/1999/xlink">
    <!-- Generator: Sketch 50.2 (55047) - http://www.bohemiancoding.com/sketch -->
    <title>Page 1</title>
    <desc>Created with Sketch.</desc>
    <defs>
        <polygon id="path-1" points="0 0 20 0 20 21 0 21"></polygon>
    </defs>
    <g id="Page-1" stroke="none" stroke-width="1" fill="none" fill-rule="evenodd" opacity="0.63">
        <g id="Projects" transform="translate(-1190.000000, -291.000000)">
            <g id="Page-1" transform="translate(1190.000000, 291.000000)">
                <mask id="mask-2" fill="white">
                    <use xlink:href="#path-1"></use>
                </mask>
                <g id="Clip-2"></g>
                <path d="M8.3639083,2.21184566 C11.7727464,2.21184566 14.5459275,5.0231015 14.5459275,8.47874171 C14.5459275,11.9343819 11.7727464,14.7456377 8.3639083,14.7456377 C4.9550702,14.7456377 2.18188912,11.9343819 2.18188912,8.47874171 C2.18188912,5.0231015 4.9550702,2.21184566 8.3639083,2.21184566 M19.6959131,19.1276726 L14.765571,13.9294667 C16.0332486,12.4018186 16.7278166,10.4797247 16.7278166,8.47874171 C16.7278166,3.80363726 12.9756946,0 8.3639083,0 C3.75212199,0 0,3.80363726 0,8.47874171 C0,13.1538462 3.75212199,16.9574834 8.3639083,16.9574834 C10.0952373,16.9574834 11.7451091,16.428115 13.1557005,15.4231998 L18.1234983,20.6608503 C18.3311415,20.8794544 18.6104233,21 18.9097057,21 C19.1929877,21 19.4617237,20.8905136 19.6657303,20.6914475 C20.0991989,20.2686164 20.1130176,19.5674613 19.6959131,19.1276726" id="Fill-1" fill="#000000" mask="url(#mask-2)"></path>
            </g>
        </g>
    </g>
</svg>