<?xml version="1.0" encoding="UTF-8"?>
<svg width="16px" height="16px" viewBox="0 0 16 16" version="1.1" xmlns="http://www.w3.org/2000/svg" xmlns:xlink="http://www.w3.org/1999/xlink">
    <!-- Generator: Sketch 50.2 (55047) - http://www.bohemiancoding.com/sketch -->
    <title>Group 2</title>
    <desc>Created with Sketch.</desc>
    <defs>
        <polygon id="path-1" points="0.000282352941 0.096 15.864 0.096 15.864 16 0.000282352941 16"></polygon>
    </defs>
    <g id="Page-1" stroke="none" stroke-width="1" fill="none" fill-rule="evenodd">
        <g id="Home" transform="translate(-352.000000, -1135.000000)">
            <g id="Group-2" transform="translate(352.000000, 1135.000000)">
                <g id="Page-1">
                    <path d="M9.62823529,4.19576471 C9.65647059,4.19576471 9.68282353,4.19011765 9.70729412,4.18070588 C9.71105882,4.17882353 9.71482353,4.17694118 9.71858824,4.17317647 L9.79388235,4.09788235 C9.824,4.06776471 9.84282353,4.02635294 9.84282353,3.98494118 L9.84282353,3.98117647 C9.84282353,3.86258824 9.74494118,3.76470588 9.62635294,3.76470588 C9.59811765,3.76470588 9.57176471,3.77035294 9.54729412,3.77976471 C9.54352941,3.78164706 9.53976471,3.78352941 9.53788235,3.78729412 L9.46070588,3.86258824 C9.43058824,3.89270588 9.41364706,3.93411765 9.41176471,3.97552941 L9.41176471,3.97929412 C9.41176471,4.09788235 9.50964706,4.19576471 9.62823529,4.19576471" id="Fill-1" fill="#585858"></path>
                    <path d="M10.5694118,4.19576471 C10.5976471,4.19576471 10.624,4.19011765 10.6484706,4.18070588 C10.6522353,4.17882353 10.656,4.17694118 10.6597647,4.17317647 L10.7350588,4.09788235 C10.7651765,4.06776471 10.784,4.02635294 10.784,3.98494118 L10.784,3.98117647 C10.784,3.86258824 10.6861176,3.76470588 10.5675294,3.76470588 C10.5392941,3.76470588 10.5129412,3.77035294 10.4884706,3.77976471 C10.4847059,3.78164706 10.4809412,3.78352941 10.4790588,3.78729412 L10.4018824,3.86258824 C10.3717647,3.89270588 10.3548235,3.93411765 10.3529412,3.97552941 L10.3529412,3.97929412 C10.3529412,4.09788235 10.4508235,4.19576471 10.5694118,4.19576471" id="Fill-3" fill="#585858"></path>
                    <path d="M10.5694118,4.19576471 C10.5976471,4.19576471 10.624,4.19011765 10.6484706,4.18070588 C10.6522353,4.17882353 10.656,4.17694118 10.6597647,4.17317647 L10.7350588,4.09788235 C10.7651765,4.06776471 10.784,4.02635294 10.784,3.98494118 L10.784,3.98117647 C10.784,3.86258824 10.6861176,3.76470588 10.5675294,3.76470588 C10.5392941,3.76470588 10.5129412,3.77035294 10.4884706,3.77976471 C10.4847059,3.78164706 10.4809412,3.78352941 10.4790588,3.78729412 L10.4018824,3.86258824 C10.3717647,3.89270588 10.3548235,3.93411765 10.3529412,3.97552941 L10.3529412,3.97929412 C10.3529412,4.09788235 10.4508235,4.19576471 10.5694118,4.19576471" id="Fill-5" fill="#585858"></path>
                    <path d="M9.62823529,5.13694118 C9.65647059,5.13694118 9.68282353,5.13129412 9.70729412,5.12188235 C9.71105882,5.12 9.71482353,5.11811765 9.71858824,5.11435294 L9.79388235,5.03905882 C9.824,5.00894118 9.84282353,4.96752941 9.84282353,4.92611765 L9.84282353,4.92235294 C9.84282353,4.80376471 9.74494118,4.70588235 9.62635294,4.70588235 C9.59811765,4.70588235 9.57176471,4.71152941 9.54729412,4.72094118 C9.54352941,4.72282353 9.53976471,4.72470588 9.53788235,4.72847059 L9.46070588,4.80376471 C9.43058824,4.83388235 9.41364706,4.87529412 9.41176471,4.91670588 L9.41176471,4.92047059 C9.41176471,5.03905882 9.50964706,5.13694118 9.62823529,5.13694118" id="Fill-7" fill="#585858"></path>
                    <path d="M10.5694118,5.13694118 C10.5976471,5.13694118 10.624,5.13129412 10.6484706,5.12188235 C10.6522353,5.12 10.656,5.11811765 10.6597647,5.11435294 L10.7350588,5.03905882 C10.7651765,5.00894118 10.784,4.96752941 10.784,4.92611765 L10.784,4.92235294 C10.784,4.80376471 10.6861176,4.70588235 10.5675294,4.70588235 C10.5392941,4.70588235 10.5129412,4.71152941 10.4884706,4.72094118 C10.4847059,4.72282353 10.4809412,4.72470588 10.4790588,4.72847059 L10.4018824,4.80376471 C10.3717647,4.83388235 10.3548235,4.87529412 10.3529412,4.91670588 L10.3529412,4.92047059 C10.3529412,5.03905882 10.4508235,5.13694118 10.5694118,5.13694118" id="Fill-9" fill="#585858"></path>
                    <path d="M10.5694118,5.13694118 C10.5976471,5.13694118 10.624,5.13129412 10.6484706,5.12188235 C10.6522353,5.12 10.656,5.11811765 10.6597647,5.11435294 L10.7350588,5.03905882 C10.7651765,5.00894118 10.784,4.96752941 10.784,4.92611765 L10.784,4.92235294 C10.784,4.80376471 10.6861176,4.70588235 10.5675294,4.70588235 C10.5392941,4.70588235 10.5129412,4.71152941 10.4884706,4.72094118 C10.4847059,4.72282353 10.4809412,4.72470588 10.4790588,4.72847059 L10.4018824,4.80376471 C10.3717647,4.83388235 10.3548235,4.87529412 10.3529412,4.91670588 L10.3529412,4.92047059 C10.3529412,5.03905882 10.4508235,5.13694118 10.5694118,5.13694118" id="Fill-11" fill="#585858"></path>
                    <path d="M9.62823529,6.07811765 C9.65647059,6.07811765 9.68282353,6.07247059 9.70729412,6.06305882 C9.71105882,6.06117647 9.71482353,6.05929412 9.71858824,6.05552941 L9.79388235,5.98023529 C9.824,5.95011765 9.84282353,5.90870588 9.84282353,5.86729412 L9.84282353,5.86352941 C9.84282353,5.74494118 9.74494118,5.64705882 9.62635294,5.64705882 C9.59811765,5.64705882 9.57176471,5.65270588 9.54729412,5.66211765 C9.54352941,5.664 9.53976471,5.66588235 9.53788235,5.66964706 L9.46070588,5.74494118 C9.43058824,5.77505882 9.41364706,5.81647059 9.41176471,5.85788235 L9.41176471,5.86164706 C9.41176471,5.98023529 9.50964706,6.07811765 9.62823529,6.07811765" id="Fill-13" fill="#585858"></path>
                    <path d="M10.5694118,6.07811765 C10.5976471,6.07811765 10.624,6.07247059 10.6484706,6.06305882 C10.6522353,6.06117647 10.656,6.05929412 10.6597647,6.05552941 L10.7350588,5.98023529 C10.7651765,5.95011765 10.784,5.90870588 10.784,5.86729412 L10.784,5.86352941 C10.784,5.74494118 10.6861176,5.64705882 10.5675294,5.64705882 C10.5392941,5.64705882 10.5129412,5.65270588 10.4884706,5.66211765 C10.4847059,5.664 10.4809412,5.66588235 10.4790588,5.66964706 L10.4018824,5.74494118 C10.3717647,5.77505882 10.3548235,5.81647059 10.3529412,5.85788235 L10.3529412,5.86164706 C10.3529412,5.98023529 10.4508235,6.07811765 10.5694118,6.07811765" id="Fill-15" fill="#585858"></path>
                    <path d="M10.5694118,6.07811765 C10.5976471,6.07811765 10.624,6.07247059 10.6484706,6.06305882 C10.6522353,6.06117647 10.656,6.05929412 10.6597647,6.05552941 L10.7350588,5.98023529 C10.7651765,5.95011765 10.784,5.90870588 10.784,5.86729412 L10.784,5.86352941 C10.784,5.74494118 10.6861176,5.64705882 10.5675294,5.64705882 C10.5392941,5.64705882 10.5129412,5.65270588 10.4884706,5.66211765 C10.4847059,5.664 10.4809412,5.66588235 10.4790588,5.66964706 L10.4018824,5.74494118 C10.3717647,5.77505882 10.3548235,5.81647059 10.3529412,5.85788235 L10.3529412,5.86164706 C10.3529412,5.98023529 10.4508235,6.07811765 10.5694118,6.07811765" id="Fill-17" fill="#585858"></path>
                    <path d="M9.62823529,6.07811765 C9.65647059,6.07811765 9.68282353,6.07247059 9.70729412,6.06305882 C9.71105882,6.06117647 9.71482353,6.05929412 9.71858824,6.05552941 L9.79388235,5.97835294 C9.824,5.95011765 9.84282353,5.90870588 9.84282353,5.86917647 L9.84282353,5.86541176 C9.84282353,5.74494118 9.74494118,5.64705882 9.62635294,5.64705882 C9.59811765,5.64705882 9.57176471,5.65270588 9.54729412,5.66211765 C9.54352941,5.664 9.53976471,5.66588235 9.53788235,5.66964706 L9.46070588,5.74494118 C9.43058824,5.77505882 9.41364706,5.81647059 9.41176471,5.85788235 L9.41176471,5.86164706 C9.41176471,5.98023529 9.50964706,6.07811765 9.62823529,6.07811765" id="Fill-19" fill="#585858"></path>
                    <path d="M10.5694118,6.07811765 C10.5976471,6.07811765 10.624,6.07247059 10.6484706,6.06305882 C10.6522353,6.06117647 10.656,6.05929412 10.6597647,6.05552941 L10.7350588,5.97835294 C10.7651765,5.95011765 10.784,5.90870588 10.784,5.86917647 L10.784,5.86541176 C10.784,5.74494118 10.6861176,5.64705882 10.5675294,5.64705882 C10.5392941,5.64705882 10.5129412,5.65270588 10.4884706,5.66211765 C10.4847059,5.664 10.4809412,5.66588235 10.4790588,5.66964706 L10.4018824,5.74494118 C10.3717647,5.77505882 10.3548235,5.81647059 10.3529412,5.85788235 L10.3529412,5.86164706 C10.3529412,5.98023529 10.4508235,6.07811765 10.5694118,6.07811765" id="Fill-21" fill="#585858"></path>
                    <path d="M10.5694118,6.07811765 C10.5976471,6.07811765 10.624,6.07247059 10.6484706,6.06305882 C10.6522353,6.06117647 10.656,6.05929412 10.6597647,6.05552941 L10.7350588,5.97835294 C10.7651765,5.95011765 10.784,5.90870588 10.784,5.86917647 L10.784,5.86541176 C10.784,5.74494118 10.6861176,5.64705882 10.5675294,5.64705882 C10.5392941,5.64705882 10.5129412,5.65270588 10.4884706,5.66211765 C10.4847059,5.664 10.4809412,5.66588235 10.4790588,5.66964706 L10.4018824,5.74494118 C10.3717647,5.77505882 10.3548235,5.81647059 10.3529412,5.85788235 L10.3529412,5.86164706 C10.3529412,5.98023529 10.4508235,6.07811765 10.5694118,6.07811765" id="Fill-23" fill="#585858"></path>
                    <g id="Group-27">
                        <mask id="mask-2" fill="white">
                            <use xlink:href="#path-1"></use>
                        </mask>
                        <g id="Clip-26"></g>
                        <path d="M13.4925176,1.40945455 C13.4925176,0.685090909 12.9207529,0.096 12.2176941,0.096 L11.0896941,0.096 C10.3880471,0.096 9.81487059,0.685090909 9.81487059,1.40945455 L9.81487059,1.71927273 C9.7584,1.73527273 9.70192941,1.75272727 9.64828235,1.77454545 C9.58475294,1.80072727 9.52969412,1.83854545 9.48451765,1.88654545 L9.11604706,2.26618182 C8.90710588,2.48145455 8.78851765,2.76363636 8.78287059,3.06327273 L8.78287059,3.08945455 C8.78287059,3.14036364 8.78569412,3.19272727 8.79134118,3.248 L8.82522353,3.56218182 L11.4878118,3.56218182 L11.5287529,3.25818182 C11.5358118,3.21018182 11.5386353,3.16509091 11.5400471,3.12290909 L11.5400471,3.09818182 C11.5414588,2.72 11.3974588,2.36363636 11.1334588,2.09163636 C10.9555765,1.90836364 10.7381647,1.78181818 10.5024,1.71927273 L10.5024,1.40945455 C10.5024,1.07490909 10.7664,0.802909091 11.0896941,0.802909091 L12.2176941,0.802909091 C12.5424,0.802909091 12.8064,1.07490909 12.8064,1.40945455 L12.8064,7.11563636 L0.000282352941,7.11563636 L0.000282352941,9.01236364 C0.000282352941,9.46909091 0.351811765,9.84 0.783811765,9.84 L1.33581176,9.84 L2.44404706,13.1214545 C3.02428235,14.8436364 4.56310588,16 6.26992941,16 L9.59887059,16 C11.3085176,16 12.8473412,14.8421818 13.4261647,13.1185455 L14.5301647,9.84 L15.0807529,9.84 C15.5127529,9.84 15.8642824,9.46909091 15.8642824,9.01236364 L15.8642824,7.11563636 L13.4925176,7.11563636 L13.4925176,1.40945455 Z M10.8115765,2.85527273 L9.53392941,2.85527273 C9.55228235,2.82327273 9.57487059,2.79418182 9.60169412,2.76654545 L9.93910588,2.41745455 C10.0096941,2.39418182 10.0831059,2.38109091 10.1593412,2.38109091 L10.1607529,2.38109091 C10.3428706,2.38109091 10.5165176,2.45527273 10.6478118,2.592 C10.7226353,2.66763636 10.7776941,2.75781818 10.8115765,2.85527273 Z M15.1781647,9.01236364 C15.1781647,9.07781818 15.1329882,9.13309091 15.0807529,9.13309091 L14.2929882,9.13309091 L14.2774588,9.13309091 L3.42945882,9.13309091 C3.23887059,9.13309091 3.08498824,9.29163636 3.08498824,9.48654545 C3.08498824,9.68145455 3.23887059,9.84 3.42945882,9.84 L13.8031059,9.84 L12.7781647,12.8858182 C12.2939294,14.3243636 11.0162824,15.2916364 9.59887059,15.2916364 L6.26992941,15.2916364 C4.85392941,15.2916364 3.57769412,14.3258182 3.09204706,12.8901818 L1.82428235,9.13309091 L0.783811765,9.13309091 C0.731576471,9.13309091 0.687811765,9.07781818 0.687811765,9.01236364 L0.687811765,7.824 L15.1781647,7.824 L15.1781647,9.01236364 Z" id="Fill-25" fill="#585858" mask="url(#mask-2)"></path>
                    </g>
                </g>
            </g>
        </g>
    </g>
</svg>