<?xml version="1.0" encoding="UTF-8"?>
<svg width="38px" height="35px" viewBox="0 0 38 35" version="1.1" xmlns="http://www.w3.org/2000/svg" xmlns:xlink="http://www.w3.org/1999/xlink">
    <!-- Generator: Sketch 50.2 (55047) - http://www.bohemiancoding.com/sketch -->
    <title>Group</title>
    <desc>Created with Sketch.</desc>
    <defs></defs>
    <g id="Page-1" stroke="none" stroke-width="1" fill="none" fill-rule="evenodd">
        <g id="Home" transform="translate(-584.000000, -1389.000000)" fill="#00AE9E" fill-rule="nonzero">
            <g id="Group" transform="translate(584.000000, 1389.000000)">
                <path d="M33.2112464,29.1000377 C36.1894314,26.0090373 38,21.9462784 38,17.4995607 C38,12.8736036 36.0387097,8.66235722 32.8430275,5.53094013 C32.8401657,5.52742563 32.8373039,5.52478976 32.8373039,5.52215388 C29.505209,2.26597214 24.8442827,0.179239362 19.659646,0.0149366135 L19.2876114,0.00615037028 C19.1922179,0.00263587298 19.0958705,0 18.999523,0 C18.9031756,0 18.8077821,0.00263587298 18.7123886,0.00615037028 L18.3432158,0.0149366135 C13.1576252,0.179239362 8.49479101,2.26597214 5.16651186,5.52215388 C5.16365006,5.52478976 5.16078825,5.52742563 5.16078825,5.53094013 C5.16078825,5.53094013 5.16078825,5.53094013 5.15697251,5.53094013 C1.96319819,8.66235722 0,12.8736036 0,17.4995607 C0,21.9462784 1.8134304,26.0090373 4.78970754,29.1000377 C4.79543115,29.106188 4.79543115,29.1123384 4.79829296,29.1184888 C4.81260198,29.1334254 4.82881888,29.1386971 4.84122003,29.1536337 C8.18667001,32.5987197 12.9859169,34.8172461 18.3441697,34.985942 L18.7133425,34.9982428 C18.808736,34.9982428 18.9041295,35 19.000477,35 C19.0968244,35 19.1931718,34.9982428 19.2885653,34.9947283 L19.6567842,34.985942 L19.6606,34.985942 C25.0217146,34.8172461 29.8266851,32.593448 33.173089,29.1422116 C33.1807205,29.1299109 33.1950295,29.127275 33.2007531,29.1158529 C33.2074307,29.1123384 33.2074307,29.106188 33.2112464,29.1000377 Z M1.32787749,18.1040542 L9.19211748,18.1040542 C9.26461654,20.6626083 9.80835948,23.1482365 10.7746956,25.4765909 C8.90975273,26.098657 7.12780218,26.9298356 5.45746203,27.9692481 C3.00489519,25.2789005 1.47478348,21.8522656 1.32787749,18.1040542 Z M5.81614158,6.65294339 C7.4473704,7.62821639 9.1816242,8.40931342 10.9931467,8.99623447 C9.88562822,11.4739551 9.27129409,14.1467303 9.19211748,16.8950672 L1.32787749,16.8950672 C1.48432283,12.9702523 3.15180118,9.39337266 5.81614158,6.65294339 Z M36.6749843,16.8950672 L28.8088365,16.8950672 C28.7287059,14.1467303 28.1172336,11.4739551 27.0078072,8.99623447 C28.8174219,8.40931342 30.5564453,7.62821639 32.1848124,6.65294339 C34.8491528,9.39337266 36.5194929,12.9702523 36.6749843,16.8950672 Z M18.3441697,9.02874357 C16.4506088,8.98129785 14.5913895,8.71858918 12.7970378,8.25643279 C14.1249153,5.74620309 15.9993975,3.47935233 18.3441697,1.59382453 L18.3441697,9.02874357 Z M18.3441697,10.2359734 L18.3441697,16.8950672 L10.5028241,16.8950672 C10.5839086,14.2732522 11.1810719,11.7278775 12.2494791,9.37052843 C14.217447,9.89506715 16.2607757,10.1867704 18.3441697,10.2359734 Z M19.6558303,10.2359734 C21.7392243,10.1858918 23.782553,9.89418853 25.7533827,9.36964981 C26.8217899,11.7269989 27.4208611,14.2732522 27.5009916,16.8941885 L19.6558303,16.8941885 L19.6558303,10.2359734 Z M19.6558303,9.02874357 L19.6558303,1.59382453 C22.0044182,3.47935233 23.8789005,5.74620309 25.205824,8.25643279 C23.4086105,8.71858918 21.5493912,8.98129785 19.6558303,9.02874357 Z M26.4764654,7.88828919 C25.2163173,5.45977156 23.4687084,3.24739551 21.3070918,1.34956696 C25.1447722,1.81260198 28.5980168,3.40994101 31.2556797,5.76729007 C29.7456006,6.64679302 28.1429898,7.3576001 26.4764654,7.88828919 Z M11.5263964,7.88828919 C9.85605623,7.3576001 8.25344546,6.64679302 6.74622819,5.76641145 C9.40484499,3.40906238 12.8571357,1.81172336 16.6929082,1.34868834 C14.5312916,3.24739551 12.7836827,5.45977156 11.5263964,7.88828919 Z M10.5028241,18.1040542 L18.3441697,18.1040542 L18.3441697,24.1621689 C16.1777834,24.215765 14.0571859,24.5250408 12.016719,25.0908749 C11.0952178,22.8864064 10.5762771,20.5290574 10.5028241,18.1040542 Z M18.3441697,25.3676415 L18.3441697,33.4052968 C15.8334128,31.3870968 13.865445,28.9348563 12.5251663,26.2128781 C14.4034643,25.7023974 16.3542613,25.420359 18.3441697,25.3676415 Z M19.6558303,33.4052968 L19.6558303,25.3676415 C21.6466926,25.420359 23.5965357,25.703276 25.4748337,26.2128781 C24.1383708,28.9348563 22.1665872,31.3870968 19.6558303,33.4052968 Z M19.6558303,24.1621689 L19.6558303,18.1040542 L27.5009916,18.1040542 C27.4275386,20.5290574 26.907644,22.8864064 25.984235,25.0935107 C23.9456759,24.5250408 21.8222166,24.2148864 19.6558303,24.1621689 Z M28.8088365,18.1040542 L36.6749843,18.1040542 C36.5252165,21.8522656 34.9989205,25.2797791 32.542538,27.9692481 C30.8721978,26.9289569 29.0912012,26.098657 27.2281662,25.4765909 C28.1945023,23.1473579 28.7353835,20.6617296 28.8088365,18.1040542 Z M6.35034517,28.8733526 C7.89953558,27.9253169 9.5498431,27.1617924 11.2745575,26.5933225 C12.5509226,29.2212878 14.378662,31.6199322 16.6938622,33.650433 C12.6625329,33.1636752 9.05856659,31.4283921 6.35034517,28.8733526 Z M21.3070918,33.6495544 C23.622292,31.6190536 25.4519392,29.2230451 26.7254425,26.5924438 C28.4501569,27.1609138 30.1014184,27.9244383 31.6525166,28.872474 C28.9423873,31.4283921 25.338421,33.1636752 21.3070918,33.6495544 Z" id="Shape"></path>
                <path d="M19.000475,35 L18.3440086,34.9859995 C13.1312283,34.8223683 8.33550839,32.7511657 4.84037101,29.1539058 C4.82042051,29.1381552 4.80902023,29.1302799 4.79666992,29.1171544 L4.78241956,29.0935285 C1.69769244,25.8847832 0,21.7668788 0,17.4993437 C0,13.0419266 1.83164579,8.79101716 5.15672892,5.52889483 L5.18047951,5.50614398 C8.64616615,2.12326712 13.319333,0.172818981 18.3440086,0.0135630086 L18.7354184,0.00393764766 C18.9130728,-0.00131254922 19.0878772,-0.00131254922 19.2683817,0.00393764766 L19.6588415,0.0135630086 C24.6873172,0.173694014 29.3680842,2.12851732 32.8375709,5.52014451 L32.8584715,5.54464542 C36.1740544,8.80239259 38,13.0463017 38,17.4993437 C38,21.772129 36.3032576,25.8882833 33.2223306,29.0909034 L33.2042801,29.1162794 L33.1748294,29.1390302 C29.7271932,32.6942885 24.8022701,34.8249934 19.6578914,34.9859995 L19.2873822,34.9947498 C19.1952299,34.9973749 19.0973774,35 19.000475,35 Z M4.92492312,29.027026 C4.9401235,29.0375264 4.95057376,29.0462767 4.96197405,29.0594022 C8.42481062,32.6234109 13.1796795,34.6771129 18.3497087,34.838994 L19.001425,34.8529945 C19.0973774,34.8529945 19.1904798,34.8512444 19.2864322,34.8486193 L19.6540914,34.838994 C24.7557189,34.679738 29.639791,32.5674088 33.0570264,29.0445267 C33.0570264,29.0375264 33.0760269,29.026151 33.0836271,29.0209008 L33.0969274,28.9972749 L33.1007275,28.9972749 C36.158854,25.8209058 37.8432461,21.7371276 37.8432461,17.4984687 C37.8432461,13.0751778 36.0268007,8.86014476 32.7292682,5.62864857 L32.7064677,5.60414766 C29.2673817,2.25014688 24.6331658,0.317199395 19.6550414,0.158818456 L19.2626816,0.148318062 C19.0888272,0.143067865 18.9140229,0.143067865 18.7411185,0.148318062 L18.3497087,0.158818456 C13.3677842,0.316324362 8.73261832,2.25102191 5.29828246,5.60502269 L5.29828246,5.65227446 L5.24983125,5.65227446 C1.96749919,8.88377064 0.158653966,13.0900534 0.158653966,17.4993437 C0.158653966,21.7362526 1.84589615,25.8217808 4.90877272,29.0042752 L4.92492312,29.027026 Z M21.0667767,33.6839506 L21.2434811,33.5290698 C23.5368384,31.5199945 25.3456836,29.1635311 26.6225156,26.5253072 L26.6529163,26.4623048 L26.721318,26.4859307 C28.4437111,27.053827 30.1015025,27.8212308 31.6452911,28.7645162 L31.7260432,28.814393 L31.6585915,28.8773954 C28.8902223,31.4876183 25.2145804,33.1851819 21.3090327,33.6550746 L21.0667767,33.6839506 Z M26.7374684,26.6469368 C25.4872372,29.2099079 23.7363434,31.507744 21.5303883,33.479193 C25.2772819,32.9777992 28.79902,31.3362376 31.478087,28.8380189 C29.9874997,27.9349851 28.3933598,27.1982074 26.7374684,26.6469368 Z M16.9360734,33.6839506 L16.6938173,33.6550746 C12.7882697,33.1843069 9.11357784,31.4876183 6.34615865,28.8773954 L6.28060702,28.814393 L6.36040901,28.7645162 C7.90134753,27.8212308 9.55723893,27.053827 11.281532,26.4859307 L11.3489837,26.4640549 L11.3803345,26.5261822 C12.6647666,29.1705314 14.4736118,31.5278698 16.758419,33.5299449 L16.9360734,33.6839506 Z M6.52761319,28.8380189 C9.2038301,31.3353626 12.7236681,32.9769241 16.4724618,33.479193 C14.2750569,31.5138693 12.5241631,29.2160331 11.2663317,26.6469368 C9.60854021,27.1982074 8.01535038,27.9349851 6.52761319,28.8380189 Z M19.5752394,33.5001938 L19.5752394,25.2582597 L19.6569414,25.2600098 C21.6453411,25.3133868 23.60144,25.5968974 25.4710868,26.1052914 L25.559439,26.1289173 L25.521438,26.2050452 C24.1695542,28.9596485 22.2134553,31.3791142 19.7072927,33.3934398 L19.5752394,33.5001938 Z M19.7338933,25.4096404 L19.7338933,33.1781817 C22.1365034,31.2172331 24.0223006,28.8782704 25.3380835,26.2225458 C23.5349384,25.7395277 21.6491412,25.4665175 19.7338933,25.4096404 Z M18.4266607,33.5001938 L18.2955574,33.3943148 C15.7960449,31.3852394 13.839946,28.9666487 12.479512,26.2059202 L12.4424611,26.1297924 L12.5298632,26.1061665 C14.40046,25.5977724 16.3565589,25.3133868 18.3449586,25.2608848 L18.4266607,25.2591347 L18.4266607,33.5001938 Z M12.6628666,26.2225458 C13.9871997,28.8835206 15.8729968,31.2224833 18.2680067,33.1781817 L18.2680067,25.4096404 C16.3527588,25.4665175 14.4669617,25.7395277 12.6628666,26.2225458 Z M5.50063752,28.0224883 L5.45408635,27.9708614 C2.89472237,25.1646312 1.46683667,21.7520032 1.32243306,18.1022413 L1.31958299,18.0261135 L9.31023276,18.0261135 L9.3121328,18.0978662 C9.38338458,20.6127105 9.91254781,23.0741778 10.8834721,25.4148906 L10.9110228,25.4848932 L10.8359709,25.5102691 C8.97107428,26.1324175 7.19547989,26.9663237 5.55763894,27.985737 L5.50063752,28.0224883 Z M1.48488712,18.173119 C1.64164104,21.7406278 3.040076,25.0753778 5.53008825,27.827356 C7.13752844,26.8324437 8.87892197,26.0151631 10.7067677,25.39914 C9.75674392,23.0855532 9.23518088,20.6547121 9.15537888,18.173994 L1.48488712,18.173994 L1.48488712,18.173119 Z M32.5012625,28.0224883 L32.4423611,27.985737 C30.8054701,26.9663237 29.0308258,26.1332925 27.1678292,25.5102691 L27.0927773,25.4848932 L27.120328,25.4148906 C28.0893522,23.0838031 28.6166154,20.6214608 28.6897672,18.0978662 L28.6916673,18.0261135 L36.6851671,18.0261135 L36.6823171,18.1022413 C36.5360134,21.7572534 35.1062277,25.1698814 32.5468637,27.9708614 L32.5012625,28.0224883 Z M27.2979824,25.3982649 C29.1229781,26.0151631 30.8634216,26.8315687 32.4718118,27.826481 C34.960874,25.078878 36.360259,21.7432529 36.521763,18.172244 L28.8465212,18.172244 C28.7667192,20.6643374 28.2451561,23.0943035 27.2979824,25.3982649 Z M26.0050001,25.1506306 L25.9337483,25.1313799 C23.9282482,24.5713589 21.8144454,24.2598472 19.6540914,24.2064702 L19.5761894,24.2055952 L19.5761894,18.0278635 L27.5497387,18.0278635 L27.5468887,18.1031164 C27.4737368,20.5094566 26.9645241,22.8606698 26.0316008,25.0876283 L26.0050001,25.1506306 Z M19.7338933,24.0620898 C21.8571964,24.120717 23.9339483,24.4261035 25.9090477,24.9712489 C26.8087202,22.8011675 27.3046326,20.5147068 27.3844346,18.172244 L19.7338933,18.172244 L19.7338933,24.0620898 Z M11.9978499,25.1480056 L11.9721993,25.0850032 C11.041176,22.8589197 10.5319633,20.5094566 10.4588115,18.1031164 L10.4569114,18.0278635 L18.4266607,18.0278635 L18.4266607,24.2055952 L18.3497087,24.2064702 C16.1941049,24.2607223 14.0822021,24.5704839 12.0700518,25.1287548 L11.9978499,25.1480056 Z M10.6212655,18.173119 C10.7010675,20.5138318 11.1950799,22.7994175 12.0938023,24.9686238 C14.0755519,24.4261035 16.1513538,24.120717 18.2680067,24.0629649 L18.2680067,18.173994 L10.6212655,18.173994 L10.6212655,18.173119 Z M36.6861172,16.9699489 L28.6926173,16.9699489 L28.6907173,16.8990712 C28.6109153,14.1672188 28.0095502,11.5289948 26.9018225,9.05790217 L26.8704718,8.98614948 L26.9493237,8.96077353 C28.7638691,8.37275148 30.4919623,7.59047214 32.0870522,6.63493631 L32.1450036,6.60081003 L32.1906048,6.64718677 C34.9371234,9.47091766 36.5322133,13.1093041 36.6832671,16.892946 L36.6861172,16.9699489 Z M28.8465212,16.8238184 L36.521763,16.8238184 C36.3545589,13.1224296 34.7936698,9.5654212 32.1165029,6.79244222 C30.5499137,7.72435216 28.8569714,8.49175594 27.079477,9.07365276 C28.1653541,11.5184944 28.759119,14.1252172 28.8465212,16.8238184 Z M27.5487887,16.9699489 L19.5752394,16.9699489 L19.5752394,10.1936948 L19.6531413,10.1928197 C21.7099427,10.1429429 23.7467937,9.85418203 25.7038426,9.33266247 L25.7722443,9.31428679 L25.798845,9.37466405 C26.878072,11.7521282 27.4651866,14.2827231 27.5449886,16.8946961 L27.5487887,16.9699489 Z M19.7338933,16.8238184 L27.3844346,16.8238184 C27.2970324,14.2783479 26.7232181,11.8116304 25.681042,9.49104341 C23.7543939,9.99856245 21.7545939,10.2820731 19.7338933,10.3363251 L19.7338933,16.8238184 Z M18.4266607,16.9699489 L10.4569114,16.9699489 L10.4588115,16.8946961 C10.5386135,14.2844732 11.1266782,11.7538783 12.2049551,9.37466405 L12.2325058,9.31428679 L12.2999575,9.33266247 C14.2560564,9.85418203 16.2900573,10.1429429 18.3487587,10.1928197 L18.4257106,10.1936948 L18.4257106,16.9699489 L18.4266607,16.9699489 Z M10.6212655,16.8238184 L18.2680067,16.8238184 L18.2680067,10.3363251 C16.2454061,10.2820731 14.2484562,9.99768741 12.3246581,9.49104341 C11.280582,11.8133805 10.7077177,14.279223 10.6212655,16.8238184 Z M9.31023276,16.9699489 L1.31863297,16.9699489 L1.32243306,16.893821 C1.47253681,13.1093041 3.06762669,9.47091766 5.81319533,6.6480618 L5.85879647,6.60168506 L5.91579789,6.63581134 C7.51753794,7.59309724 9.24563114,8.37537658 11.0535263,8.96164856 L11.1323783,8.98702451 L11.1010275,9.05790217 C9.99329983,11.5368701 9.3919348,14.174219 9.31308283,16.8990712 L9.31023276,16.9699489 Z M1.48488712,16.8238184 L9.15537888,16.8238184 C9.24278107,14.1322175 9.83654591,11.5254947 10.921473,9.07365276 C9.15157879,8.49350601 7.45768644,7.72697726 5.88539713,6.79244222 C3.21108028,9.56367114 1.65019125,13.1206795 1.48488712,16.8238184 Z M19.5752394,9.13665512 L19.5752394,1.49674363 L19.7072927,1.6026226 C22.0434011,3.48044302 23.9092477,5.72052702 25.2535313,8.26074728 L25.2953324,8.33950023 L25.2041301,8.36312612 C23.3971849,8.82864357 21.5313383,9.08852832 19.6569414,9.13490506 L19.5752394,9.13665512 Z M19.7338933,1.81963074 L19.7338933,8.98614948 C21.5351384,8.93539758 23.3297332,8.68601323 25.0682767,8.24587172 C23.7629441,5.8027801 21.9683492,3.64232409 19.7338933,1.81963074 Z M18.4266607,9.13665512 L18.3459086,9.13490506 C16.4705618,9.08852832 14.6056651,8.82864357 12.80157,8.36312612 L12.7103678,8.33950023 L12.7521688,8.26074728 C14.0955024,5.72140205 15.959449,3.48131805 18.2955574,1.6026226 L18.4266607,1.49674363 L18.4266607,9.13665512 Z M12.9374234,8.24587172 C14.6731168,8.68601323 16.4658116,8.93539758 18.2680067,8.98614948 L18.2680067,1.81963074 C16.0335508,3.64319912 14.241806,5.80453017 12.9374234,8.24587172 Z M26.4049601,8.01661312 L26.3755094,7.95798592 C25.1176779,5.53677013 23.3905348,3.35268823 21.2434811,1.46786755 L21.0667767,1.31386177 L21.3090327,1.34273785 C25.0701768,1.79600485 28.5121128,3.32468718 31.2614815,5.76165356 L31.3336833,5.82640599 L31.2491312,5.87540783 C29.7461937,6.75131567 28.1397035,7.46446742 26.4733618,7.99561234 L26.4049601,8.01661312 Z M21.5294382,1.51774442 C23.5928898,3.36406365 25.2601815,5.48864332 26.4876122,7.83635636 C28.0874522,7.32183707 29.6312408,6.63756141 31.078127,5.80190507 C28.4237606,3.47519282 25.1309783,1.9972624 21.5294382,1.51774442 Z M11.59884,8.01661312 L11.5323383,7.99561234 C9.86219655,7.46446742 8.25475637,6.75131567 6.75561889,5.87540783 L6.67106678,5.82640599 L6.74326858,5.76165356 C9.49263732,3.32381214 12.9336233,1.79600485 16.6938173,1.34273785 L16.9351234,1.31386177 L16.758419,1.46786755 C14.6075652,3.35531332 12.8823221,5.53939523 11.6301908,7.95798592 L11.59884,8.01661312 Z M6.92662317,5.80190507 C8.37160929,6.63756141 9.91539788,7.32183707 11.5171379,7.83635636 C12.7398185,5.49039339 14.4071102,3.36668875 16.4724618,1.51774442 C12.8728218,1.9972624 9.5800395,3.47519282 6.92662317,5.80190507 Z" id="Shape"></path>
            </g>
        </g>
    </g>
</svg>