<?xml version="1.0" encoding="UTF-8"?>
<svg width="38px" height="32px" viewBox="0 0 38 32" version="1.1" xmlns="http://www.w3.org/2000/svg" xmlns:xlink="http://www.w3.org/1999/xlink">
    <!-- Generator: Sketch 50.2 (55047) - http://www.bohemiancoding.com/sketch -->
    <title>Group 12</title>
    <desc>Created with Sketch.</desc>
    <defs></defs>
    <g id="Page-1" stroke="none" stroke-width="1" fill="none" fill-rule="evenodd">
        <g id="Home" transform="translate(-586.000000, -1498.000000)">
            <g id="Group-12" transform="translate(586.000000, 1498.000000)">
                <path d="M34.3150081,21.6470588 L2.65891145,21.6470588 C2.3247727,21.6470588 2.05405405,21.8580122 2.05405405,22.1176471 C2.05405405,22.3780195 2.3247727,22.5882353 2.65891145,22.5882353 L34.3150081,22.5882353 C34.6491468,22.5882353 34.9189189,22.3780195 34.9189189,22.1176471 C34.9179724,21.8587498 34.6482003,21.6470588 34.3150081,21.6470588 Z" id="Shape" fill="#00AE9E" fill-rule="nonzero"></path>
                <path d="M8.77800878,19.7647059 L11.7651652,19.7647059 C12.0741511,19.7647059 12.3243243,19.5092718 12.3243243,19.1939982 L12.3243243,10.9236489 C12.3243243,10.6083753 12.0741511,10.3529412 11.7651652,10.3529412 L8.77800878,10.3529412 C8.46814507,10.3529412 8.21621622,10.6083753 8.21621622,10.9236489 L8.21621622,19.1939982 C8.21709402,19.5092718 8.46902287,19.7647059 8.77800878,19.7647059 Z M9.33804574,11.4943566 L11.2051282,11.4943566 L11.2051282,18.6250768 L9.33804574,18.6250768 L9.33804574,11.4943566 Z" id="Shape" fill="#00AE9E" fill-rule="nonzero"></path>
                <path d="M13.9111491,18.8235294 L16.8987843,18.8235294 C17.2085156,18.8235294 17.4594595,18.5852674 17.4594595,18.2911888 L17.4594595,8.06091926 C17.4594595,7.76767374 17.2085156,7.52941176 16.8987843,7.52941176 L13.9111491,7.52941176 C13.6022952,7.52941176 13.3513514,7.76767374 13.3513514,8.06091926 L13.3513514,18.2911888 C13.3522288,18.5852674 13.6031726,18.8235294 13.9111491,18.8235294 Z M14.4718242,8.59325983 L16.3381091,8.59325983 L16.3381091,17.7605144 L14.4718242,17.7605144 L14.4718242,8.59325983 Z" id="Shape" fill="#00AE9E" fill-rule="nonzero"></path>
                <path d="M20.0734308,19.7647059 L23.0617043,19.7647059 C23.3715018,19.7647059 23.6216216,19.5186879 23.6216216,19.2150363 L23.6216216,6.19672836 C23.6216216,5.893937 23.3715018,5.64705882 23.0617043,5.64705882 L20.0734308,5.64705882 C19.7645109,5.64705882 19.5135135,5.893937 19.5135135,6.19672836 L19.5135135,19.2158965 C19.5143911,19.5186879 19.7653885,19.7647059 20.0734308,19.7647059 Z M20.6351034,6.7455377 L22.5026646,6.7455377 L22.5026646,18.6670872 L20.6351034,18.6670872 L20.6351034,6.7455377 Z" id="Shape" fill="#00AE9E" fill-rule="nonzero"></path>
                <path d="M25.2094436,19.7647059 L28.1959618,19.7647059 C28.5048817,19.7647059 28.7567568,19.5167476 28.7567568,19.2107011 L28.7567568,13.7296084 C28.7567568,13.4235619 28.5048817,13.1764706 28.1959618,13.1764706 L25.2094436,13.1764706 C24.8996461,13.1764706 24.6486486,13.4244289 24.6486486,13.7296084 L24.6486486,19.2107011 C24.6495263,19.5167476 24.9005237,19.7647059 25.2094436,19.7647059 Z M25.7693609,14.2827462 L27.6369221,14.2827462 L27.6369221,18.6584303 L25.7693609,18.6584303 L25.7693609,14.2827462 Z" id="Shape" fill="#00AE9E" fill-rule="nonzero"></path>
                <path d="M36.7406671,0.941176471 L1.25836656,0.941176471 C1.13261768,0.941176471 1.02702703,1.03647628 1.02702703,1.14894724 L1.02702703,25.2039939 C1.02702703,25.3164649 1.13261768,25.4117647 1.25836656,25.4117647 L36.7406671,25.4117647 C36.866416,25.4117647 36.9729666,25.3164649 36.9729666,25.2039939 L36.9729666,1.14894724 C36.9739265,1.03647628 36.866416,0.941176471 36.7406671,0.941176471 Z" id="Shape"></path>
                <path d="M36.558849,0 L1.44304996,0 C0.647899982,0 0,0.5855546 0,1.30524506 L0,25.3963887 C0,26.1160791 0.647899982,26.7024936 1.44304996,26.7024936 L14.6879496,26.7024936 L14.6879496,30.9019776 L8.96799975,30.9019776 C8.63264976,30.9019776 8.36189977,31.1478934 8.36189977,31.4505589 C8.36189977,31.7540843 8.63264976,32 8.96799975,32 L29.0338992,32 C29.3692492,32 29.6399992,31.7540843 29.6399992,31.4505589 C29.6399992,31.1478934 29.3692492,30.9019776 29.0338992,30.9019776 L23.3148994,30.9019776 L23.3148994,26.7024936 L36.557899,26.7024936 C37.353049,26.7024936 37.999999,26.116939 37.999999,25.3963887 L37.999999,1.30524506 C38.000949,0.5855546 37.353999,0 36.558849,0 Z M36.789699,25.3963887 C36.789699,25.5090284 36.684249,25.6044712 36.559799,25.6044712 L1.44399996,25.6044712 C1.31954996,25.6044712 1.21504997,25.5090284 1.21504997,25.3963887 L1.21504997,1.30524506 C1.21504997,1.19260533 1.31954996,1.09716251 1.44399996,1.09716251 L36.559799,1.09716251 C36.684249,1.09716251 36.789699,1.19260533 36.789699,1.30524506 L36.789699,25.3963887 Z M22.1026994,30.9011178 L15.9020496,30.9011178 L15.9020496,26.7024936 L22.1026994,26.7024936 L22.1026994,30.9011178 Z" id="Shape" fill="#00AE9E" fill-rule="nonzero"></path>
            </g>
        </g>
    </g>
</svg>