<?xml version="1.0" encoding="UTF-8"?>
<svg width="53px" height="40px" viewBox="0 0 53 40" version="1.1" xmlns="http://www.w3.org/2000/svg" xmlns:xlink="http://www.w3.org/1999/xlink">
    <!-- Generator: Sketch 50.2 (55047) - http://www.bohemiancoding.com/sketch -->
    <title>Path</title>
    <desc>Created with Sketch.</desc>
    <defs></defs>
    <g id="Page-1" stroke="none" stroke-width="1" fill="none" fill-rule="evenodd">
        <g id="Services" transform="translate(-1056.000000, -1292.000000)" fill="#00AE9E">
            <path d="M1103.98688,1308.42907 L1103.98688,1327.04782 L1106.01924,1327.04782 C1106.35394,1327.04782 1106.63218,1327.32468 1106.63218,1327.66193 L1106.63218,1331.38689 C1106.63218,1331.72415 1106.35394,1332 1106.01924,1332 L1096.99762,1332 C1096.66191,1332 1096.38367,1331.72415 1096.38367,1331.38689 L1096.38367,1327.66193 C1096.38367,1327.32468 1096.66191,1327.04782 1096.99762,1327.04782 L1099.02796,1327.04782 L1099.02796,1305.8508 L1083.16022,1297.60153 L1083.15115,1297.5965 L1083.14207,1297.59146 L1083.13199,1297.58643 L1083.12292,1297.5824 L1083.11284,1297.57838 L1083.10377,1297.57334 L1083.09469,1297.56931 C1082.91122,1297.48273 1082.70758,1297.43642 1082.49688,1297.43642 C1082.29526,1297.43642 1082.10371,1297.47871 1081.93032,1297.55522 L1065.97386,1305.84979 L1065.97386,1327.04782 L1068.00623,1327.04782 C1068.34193,1327.04782 1068.62017,1327.32468 1068.62017,1327.66193 L1068.62017,1331.38689 C1068.62017,1331.72415 1068.34193,1332 1068.00623,1332 L1058.98661,1332 C1058.65091,1332 1058.37267,1331.72415 1058.37267,1331.38689 L1058.37267,1327.66193 C1058.37267,1327.32468 1058.65091,1327.04782 1058.98661,1327.04782 L1061.01494,1327.04782 L1061.01494,1308.42706 L1058.61966,1309.67341 C1058.32025,1309.82946 1057.94624,1309.71066 1057.79099,1309.41065 L1056.06913,1306.10853 C1055.91287,1305.80751 1056.03082,1305.43501 1056.32922,1305.27897 L1081.38594,1292.25571 C1081.72164,1292.09161 1082.1017,1292 1082.4999,1292 C1082.89811,1292 1083.27817,1292.09262 1083.61387,1292.25571 L1090.76645,1295.97262 L1090.76645,1294.03564 C1090.76645,1293.70039 1091.04268,1293.42354 1091.3814,1293.42354 L1095.11042,1293.42354 C1095.44814,1293.42354 1095.72537,1293.70341 1095.72537,1294.03564 L1095.72537,1298.54988 L1108.67059,1305.27897 C1108.97,1305.43501 1109.08694,1305.80751 1108.93068,1306.10853 L1107.20882,1309.41065 C1107.05357,1309.71066 1106.68057,1309.82946 1106.38015,1309.67341 L1103.98688,1308.42907 Z" id="Path"></path>
        </g>
    </g>
</svg>