<?xml version="1.0" encoding="UTF-8"?>
<svg width="32px" height="34px" viewBox="0 0 32 34" version="1.1" xmlns="http://www.w3.org/2000/svg" xmlns:xlink="http://www.w3.org/1999/xlink">
    <!-- Generator: Sketch 50.2 (55047) - http://www.bohemiancoding.com/sketch -->
    <title>Shape</title>
    <desc>Created with Sketch.</desc>
    <defs></defs>
    <g id="Page-1" stroke="none" stroke-width="1" fill="none" fill-rule="evenodd">
        <g id="Home" transform="translate(-287.000000, -1282.000000)" fill="#00AE9E" fill-rule="nonzero">
            <path d="M318.857246,1312.42331 L312.682703,1305.0056 L316.161151,1303.88704 C316.408499,1303.80714 316.584391,1303.604 316.614622,1303.36346 C316.64577,1303.12291 316.523928,1302.88747 316.304979,1302.75658 L310.196396,1299.14334 C310.980581,1297.85733 311.480774,1296.45403 311.68873,1294.96488 C312.109222,1291.91857 311.227929,1288.90202 309.203339,1286.4711 C307.178748,1284.04018 304.257292,1282.48558 300.973974,1282.09544 C297.68974,1281.70445 294.438486,1282.52297 291.818428,1284.40056 C289.199286,1286.27815 287.523731,1288.99042 287.103239,1292.03587 C286.680915,1295.08217 287.563124,1298.09872 289.587714,1300.5305 C291.610472,1302.96057 294.532845,1304.51517 297.817079,1304.90531 C298.353,1304.96905 298.888921,1305.00135 299.420261,1305.00135 C300.479278,1305.00135 301.526385,1304.87301 302.549674,1304.62057 L304.777639,1311.01831 C304.85734,1311.2495 305.071709,1311.41695 305.330966,1311.4501 C305.588391,1311.48324 305.845817,1311.377 305.991477,1311.17555 L308.035306,1308.3358 L314.210765,1315.75266 C314.320697,1315.8844 314.483764,1315.9711 314.662404,1315.9932 C314.690803,1315.9983 314.721035,1316 314.747602,1316 C314.897843,1316 315.04442,1315.9541 315.165345,1315.86825 L318.734488,1313.30899 C319.033138,1313.09649 319.088104,1312.69956 318.857246,1312.42331 Z M297.941011,1303.63548 C294.933671,1303.28185 292.257233,1301.87853 290.402864,1299.68343 C288.547552,1297.48746 287.739625,1294.76276 288.127091,1292.01047 C288.511728,1289.25904 290.047451,1286.80949 292.446724,1285.11291 C294.847882,1283.4172 297.826939,1282.67716 300.833336,1283.0308 C303.839733,1283.38443 306.518057,1284.78861 308.372426,1286.98371 C310.225852,1289.17968 311.032837,1291.90438 310.6482,1294.65667 C310.46248,1295.97891 310.014678,1297.22439 309.320822,1298.36981 L307.552242,1297.33824 C308.273438,1296.1126 308.649591,1294.74034 308.649591,1293.33443 C308.649591,1288.66045 304.49588,1284.85933 299.387174,1284.85933 C294.281295,1284.85933 290.123813,1288.66045 290.123813,1293.33443 C290.123813,1298.00755 294.281295,1301.8104 299.387174,1301.8104 C300.123453,1301.8104 300.851248,1301.73104 301.559246,1301.57407 L302.20408,1303.39915 C300.81731,1303.72519 299.387174,1303.8054 297.941011,1303.63548 Z M299.248357,1293.9992 L301.616282,1300.71223 C301.056557,1300.82774 300.483836,1300.88889 299.902762,1300.88889 C295.63567,1300.88889 292.16129,1297.71073 292.16129,1293.80471 C292.16129,1289.89953 295.63567,1286.72222 299.902762,1286.72222 C304.170782,1286.72222 307.645161,1289.89953 307.645161,1293.80471 C307.645161,1294.94874 307.345342,1296.0639 306.775406,1297.06695 L300.273127,1293.27303 C300.029002,1293.13035 299.711545,1293.14309 299.480415,1293.30616 C299.25207,1293.46838 299.15739,1293.7461 299.248357,1293.9992 Z M314.477,1315.05556 L308.224136,1307.31565 C308.096693,1307.15749 307.900557,1307.06587 307.69267,1307.06587 C307.684535,1307.06587 307.678208,1307.06587 307.670074,1307.06587 C307.454053,1307.07192 307.255205,1307.17909 307.134088,1307.35023 L305.368861,1309.87747 L300.419355,1295.22222 L313.997054,1303.50318 L310.996257,1304.49887 C310.790179,1304.56715 310.632908,1304.72445 310.571446,1304.92324 C310.509984,1305.12117 310.550657,1305.33552 310.683524,1305.49974 L316.935484,1313.23964 L314.477,1315.05556 Z" id="Shape"></path>
        </g>
    </g>
</svg>