<?xml version="1.0" encoding="UTF-8"?>
<svg width="27px" height="35px" viewBox="0 0 27 35" version="1.1" xmlns="http://www.w3.org/2000/svg" xmlns:xlink="http://www.w3.org/1999/xlink">
    <!-- Generator: Sketch 50.2 (55047) - http://www.bohemiancoding.com/sketch -->
    <title>Group</title>
    <desc>Created with Sketch.</desc>
    <defs></defs>
    <g id="Page-1" stroke="none" stroke-width="1" fill="none" fill-rule="evenodd">
        <g id="Home" transform="translate(-289.000000, -1388.000000)">
            <g id="Group" transform="translate(289.000000, 1388.000000)">
                <path d="M22.8461538,2.83783784 L4.6442155,2.83783784 L4.6442155,7.0302661 C4.6442155,7.42900721 5.00305921,7.75303865 5.444639,7.75303865 C5.8842947,7.75303865 6.24506251,7.42900721 6.24506251,7.0302661 L6.24506251,4.42672124 C6.24506251,4.10703338 6.53079061,3.847287 6.88578613,3.847287 C7.23885756,3.847287 7.52650975,4.10703338 7.52650975,4.42672124 L7.52650975,7.0302661 C7.52650975,8.0675142 6.59236165,8.91190713 5.444639,8.91190713 C4.29499226,8.91190713 3.36084416,8.0675142 3.36084416,7.0302661 L3.36084416,2.83783784 L1.03846154,2.83783784 L1.03846154,31.2162162 L22.8461538,31.2162162 L22.8461538,2.83783784 Z" id="Shape"></path>
                <path d="M17.0035909,16.0810811 L7.91948603,16.0810811 C7.56028814,16.0810811 7.26923077,15.8690587 7.26923077,15.6081081 C7.26923077,15.3464484 7.56028814,15.1351351 7.91948603,15.1351351 L17.0035909,15.1351351 C17.3627888,15.1351351 17.6538462,15.3464484 17.6538462,15.6081081 C17.6538462,15.8690587 17.3627888,16.0810811 17.0035909,16.0810811 Z" id="Shape"></path>
                <path d="M17.0035909,13.2432432 L7.91948603,13.2432432 C7.56028814,13.2432432 7.26923077,13.0312209 7.26923077,12.7702703 C7.26923077,12.5086106 7.56028814,12.2972973 7.91948603,12.2972973 L17.0035909,12.2972973 C17.3627888,12.2972973 17.6538462,12.5086106 17.6538462,12.7702703 C17.6538462,13.0312209 17.3627888,13.2432432 17.0035909,13.2432432 Z" id="Shape"></path>
                <path d="M26.6614615,5.67567568 C26.6593846,5.67567568 26.6573077,5.67567568 26.6552308,5.67567568 L26.6552308,14.0967888 L26.6552308,33.4748149 C26.6552308,33.7943951 26.3447308,34.0540541 25.9615385,34.0540541" id="Shape"></path>
                <path d="M6.23140593,0.945945946 C5.71949724,0.945945946 5.29163326,1.21743243 5.19230769,1.57689189 L7.26923077,1.57689189 C7.17117861,1.21743243 6.74331463,0.945945946 6.23140593,0.945945946 Z" id="Shape"></path>
                <path d="M25.9615385,4.72972973 L24.6554285,4.72972973 L24.6554285,32.294577 C24.6554285,32.6192005 24.3626797,32.8813626 24.0033527,32.8813626 L3.11538462,32.8813626 L3.11538462,34.0540541 L25.9615385,34.0540541 L25.9615385,4.72972973 Z" id="Shape"></path>
                <path d="M5.1435,35 L26.3558571,35 C26.7116786,35 27,34.7383815 27,34.4163896 L27,14.8921277 L27,6.40658984 L27,5.24111897 L27,4.08352291 C27,3.76153096 26.7116786,3.4999125 26.3558571,3.4999125 L24.4292143,3.4999125 L24.4292143,2.33356666 C24.4292143,2.01157471 24.1408929,1.74995625 23.7850714,1.74995625 L7.78178571,1.74995625 C7.69885714,0.772605685 6.79821429,0 5.70085714,0 C4.6035,0 3.70092857,0.772605685 3.618,1.74995625 L0.642214286,1.74995625 C0.286392857,1.74995625 0,2.01069973 0,2.33356666 L0,32.0828229 C0,32.4056899 0.286392857,32.6664333 0.642214286,32.6664333 L1.92857143,32.6664333 L1.92857143,34.4163896 C1.92857143,34.7383815 2.21496429,34.999125 2.57078571,34.999125 L3.85714286,34.999125 L5.1435,35 Z M5.70085714,1.16722082 C6.0885,1.16722082 6.4125,1.41833954 6.48578571,1.75083123 L4.91303571,1.75083123 C4.98825,1.41833954 5.31225,1.16722082 5.70085714,1.16722082 Z M1.28442857,31.5000875 L1.28442857,2.91717707 L3.61221429,2.91717707 L3.61221429,7.1398215 C3.61221429,8.18454539 4.54853571,9.03502412 5.70085714,9.03502412 C6.85125,9.03502412 7.78757143,8.18454539 7.78757143,7.1398215 L7.78757143,4.51751206 C7.78757143,4.19552011 7.49925,3.93390165 7.14535714,3.93390165 C6.78953571,3.93390165 6.50314286,4.19552011 6.50314286,4.51751206 L6.50314286,7.1398215 C6.50314286,7.54143646 6.14153571,7.8678033 5.70085714,7.8678033 C5.25825,7.8678033 4.89857143,7.54143646 4.89857143,7.1398215 L4.89857143,2.91717707 L23.1428571,2.91717707 L23.1428571,31.5000875 L1.28442857,31.5000875 Z M3.213,33.8327792 L3.213,32.6664333 L23.7850714,32.6664333 C24.1389643,32.6664333 24.4272857,32.4056899 24.4272857,32.0828229 L24.4272857,4.66713332 L25.7136429,4.66713332 L25.7136429,33.8327792 L3.213,33.8327792 Z" id="Shape" fill="#00AE9E" fill-rule="nonzero"></path>
                <path d="M17.0035909,12.2972973 L7.91948603,12.2972973 C7.56028814,12.2972973 7.26923077,12.5086106 7.26923077,12.7702703 C7.26923077,13.0312209 7.56028814,13.2432432 7.91948603,13.2432432 L17.0035909,13.2432432 C17.3627888,13.2432432 17.6538462,13.0312209 17.6538462,12.7702703 C17.6538462,12.5093197 17.3627888,12.2972973 17.0035909,12.2972973 Z" id="Shape" fill="#00AE9E" fill-rule="nonzero"></path>
                <path d="M17.0035909,15.1351351 L7.91948603,15.1351351 C7.56028814,15.1351351 7.26923077,15.3464484 7.26923077,15.6081081 C7.26923077,15.8690587 7.56028814,16.0810811 7.91948603,16.0810811 L17.0035909,16.0810811 C17.3627888,16.0810811 17.6538462,15.8690587 17.6538462,15.6081081 C17.6538462,15.3471575 17.3627888,15.1351351 17.0035909,15.1351351 Z" id="Shape" fill="#00AE9E" fill-rule="nonzero"></path>
                <path d="M17.0035909,17.027027 L7.91948603,17.027027 C7.56028814,17.027027 7.26923077,17.2384988 7.26923077,17.5003548 C7.26923077,17.7607915 7.56028814,17.972973 7.91948603,17.972973 L17.0035909,17.972973 C17.3627888,17.972973 17.6538462,17.7607915 17.6538462,17.5003548 C17.6538462,17.2392085 17.3627888,17.027027 17.0035909,17.027027 Z" id="Shape" fill="#00AE9E" fill-rule="nonzero"></path>
            </g>
        </g>
    </g>
</svg>