<?xml version="1.0" encoding="UTF-8"?>
<svg width="22px" height="17px" viewBox="0 0 22 17" version="1.1" xmlns="http://www.w3.org/2000/svg" xmlns:xlink="http://www.w3.org/1999/xlink">
    <!-- Generator: Sketch 50.2 (55047) - http://www.bohemiancoding.com/sketch -->
    <title>envelope (2)</title>
    <desc>Created with Sketch.</desc>
    <defs></defs>
    <g id="Page-1" stroke="none" stroke-width="1" fill="none" fill-rule="evenodd">
        <g id="Home" transform="translate(-1643.000000, -1095.000000)">
            <g id="envelope-(2)" transform="translate(1643.000000, 1095.000000)">
                <path d="M19.3142863,0 L2.69025293,0 C1.20628938,0 0,1.22485046 0,2.73164763 L0,14.2683524 C0,15.7751495 1.20628938,17 2.69025293,17 L19.3097342,17 C20.7936978,17 21.9999872,15.7751495 21.9999872,14.2683524 L21.9999872,2.73626971 C22.0045392,1.22947254 20.7982498,0 19.3142863,0 Z M20.7754896,14.2683524 C20.7754896,15.08646 20.1199965,15.7520392 19.3142863,15.7520392 L2.69025293,15.7520392 C1.88454266,15.7520392 1.22904956,15.08646 1.22904956,14.2683524 L1.22904956,2.73626971 C1.22904956,1.91816204 1.88454266,1.25258293 2.69025293,1.25258293 L19.3097342,1.25258293 C20.1154445,1.25258293 20.7709376,1.91816204 20.7709376,2.73626971 L20.7709376,14.2683524 L20.7754896,14.2683524 Z" id="Shape" fill="#FFFFFF" fill-rule="nonzero"></path>
                <rect id="Rectangle-13" fill="#FFFFFF" x="1" y="1" width="20" height="15"></rect>
                <path d="M14.3830599,7.85652317 L19.7855515,3.06822504 C20.0369365,2.84236193 20.0597897,2.45839462 19.8312579,2.20542793 C19.6027261,1.9569785 19.214222,1.93439219 18.9582664,2.16025531 L11.5081299,8.76901017 L10.0546677,7.48610765 C10.0500971,7.48159039 10.0455264,7.47707313 10.0455264,7.47255586 C10.013532,7.44093503 9.98153753,7.41383145 9.94497244,7.38672788 L4.03056961,2.15573804 C3.774614,1.92987493 3.38610995,1.95246124 3.15757816,2.20542793 C2.92904637,2.45839462 2.95189954,2.84236193 3.20785515,3.06822504 L8.67433567,7.89717853 L3.23070833,12.9339261 C2.983894,13.1643065 2.97018209,13.5482738 3.20328452,13.7967232 C3.32669169,13.9232065 3.49123458,13.9909655 3.65577747,13.9909655 C3.80660845,13.9909655 3.95743944,13.9367583 4.07627597,13.828344 L9.60217475,8.71932028 L11.1013433,10.0428782 C11.2201799,10.1467752 11.3664402,10.1964651 11.5127006,10.1964651 C11.6589609,10.1964651 11.8097919,10.1422579 11.9240578,10.0383609 L13.4643621,8.67414766 L18.9582664,13.8328613 C19.0771029,13.9457929 19.2325046,14 19.3833355,14 C19.5478784,14 19.7078507,13.9367583 19.8312579,13.810275 C20.0643603,13.5663428 20.055219,13.1778582 19.8084047,12.9474779 L14.3830599,7.85652317 Z" id="Shape" fill="#00AE9E" fill-rule="nonzero"></path>
            </g>
        </g>
    </g>
</svg>