<?xml version="1.0" encoding="UTF-8"?>
<svg width="26px" height="21px" viewBox="0 0 26 21" version="1.1" xmlns="http://www.w3.org/2000/svg" xmlns:xlink="http://www.w3.org/1999/xlink">
    <!-- Generator: Sketch 50.2 (55047) - http://www.bohemiancoding.com/sketch -->
    <title>微信</title>
    <desc>Created with Sketch.</desc>
    <defs></defs>
    <g id="Page-1" stroke="none" stroke-width="1" fill="none" fill-rule="evenodd">
        <g id="Home" transform="translate(-1640.000000, -940.000000)" fill="#FFFFFF">
            <path d="M1657.60053,946.35373 C1657.89964,946.35373 1658.19472,946.375654 1658.48685,946.407493 C1657.69093,942.731755 1653.72692,940 1649.20252,940 C1644.14386,940 1640,943.419081 1640,947.760257 C1640,950.265772 1641.37902,952.323521 1643.6824,953.919623 L1642.76211,956.665109 L1645.97881,955.065265 C1647.13059,955.290757 1648.05365,955.523433 1649.20252,955.523433 C1649.49114,955.523433 1649.77688,955.509402 1650.06143,955.48673 C1649.88143,954.87715 1649.77688,954.237901 1649.77688,953.575268 C1649.77699,949.588997 1653.22925,946.35373 1657.60053,946.35373 Z M1652.65347,943.879455 C1653.34638,943.879455 1653.80507,944.332085 1653.80507,945.018662 C1653.80507,945.702508 1653.34638,946.160675 1652.65347,946.160675 C1651.96329,946.160675 1651.27169,945.702508 1651.27169,945.018662 C1651.27169,944.332085 1651.96329,943.879455 1652.65347,943.879455 Z M1646.21317,946.160675 C1645.52288,946.160675 1644.82702,945.702508 1644.82702,945.018662 C1644.82702,944.331935 1645.52288,943.879455 1646.21317,943.879455 C1646.90261,943.879455 1647.36205,944.331935 1647.36205,945.018662 C1647.36205,945.702508 1646.90261,946.160675 1646.21317,946.160675 Z M1666,953.465684 C1666,949.817407 1662.31816,946.843773 1658.18348,946.843773 C1653.80507,946.843773 1650.35707,949.817407 1650.35707,953.465684 C1650.35707,957.119198 1653.80507,960.086434 1658.18348,960.086434 C1659.09941,960.086434 1660.02396,959.858585 1660.9441,959.629577 L1663.46863,961 L1662.77629,958.720089 C1664.62389,957.345438 1666,955.523433 1666,953.465684 Z M1655.64569,952.323521 C1655.18775,952.323521 1654.7254,951.871639 1654.7254,951.410554 C1654.7254,950.955904 1655.18775,950.498447 1655.64569,950.498447 C1656.34155,950.498447 1656.79733,950.955904 1656.79733,951.410554 C1656.79733,951.871639 1656.34155,952.323521 1655.64569,952.323521 Z M1660.70712,952.323521 C1660.25265,952.323521 1659.79321,951.871639 1659.79321,951.410554 C1659.79321,950.955904 1660.25265,950.498447 1660.70712,950.498447 C1661.39726,950.498447 1661.85876,950.955904 1661.85876,951.410554 C1661.85876,951.871639 1661.39726,952.323521 1660.70712,952.323521 Z" id="微信"></path>
        </g>
    </g>
</svg>